<svg xmlns="http://www.w3.org/2000/svg" x="0px" y="3600px" width="31.978px" height="25.616px" viewBox="0 0 31.978 25.616"><g transform="translate(-535.5 -3731.25)"><g transform="translate(536.25 3732)"><path d="M833.844,138.5h9.779a.958.958,0,0,1,.6.2l3.423,2.761a.992.992,0,0,0,1.194,0l3.423-2.761a.958.958,0,0,1,.6-.2h9.779a.775.775,0,0,1,.844.68v16.828a.775.775,0,0,1-.844.68H852.246a.959.959,0,0,0-.6.2l-2.813,2.269a.992.992,0,0,1-1.194,0l-2.813-2.269a.959.959,0,0,0-.6-.2H833.844a.775.775,0,0,1-.843-.68V139.18A.775.775,0,0,1,833.844,138.5Z" transform="translate(-833 -135.305)" fill="#1cb0f6" stroke="#1cb0f6" stroke-miterlimit="10" stroke-width="1.5"/><path d="M839.68,132h7.886a.68.68,0,0,1,.481.2l2.761,2.761a.68.68,0,0,0,.962,0l2.761-2.761a.68.68,0,0,1,.481-.2H862.9a.681.681,0,0,1,.68.68v16.828a.681.681,0,0,1-.68.68h-8.378a.681.681,0,0,0-.481.2l-2.269,2.269a.68.68,0,0,1-.962,0l-2.269-2.269a.68.68,0,0,0-.481-.2H839.68a.681.681,0,0,1-.68-.68V132.68A.681.681,0,0,1,839.68,132Z" transform="translate(-836.051 -132)" fill="#ddf4ff" stroke="#ddf4ff" stroke-miterlimit="10" stroke-width="1.5"/></g><path d="M11901.75,10244.5v17.473" transform="translate(-11350.261 -6509.25)" fill="none" stroke="#84d8ff" stroke-linecap="round" stroke-width="1.5"/></g></svg>