<svg width="298" height="180" viewBox="0 0 298 180" fill="none" xmlns="http://www.w3.org/2000/svg">
<rect x="31.207" y="7.45312" width="183" height="133" fill="#1CB0F6"/>
<path d="M215.443 155.999H28.7981C26.3651 155.996 24.0326 155.028 22.3123 153.308C20.5919 151.587 19.624 149.255 19.6211 146.822V9.177C19.624 6.744 20.5919 4.41149 22.3123 2.6911C24.0326 0.97071 26.3651 0.00291108 28.7981 0H215.444C217.877 0.00291108 220.21 0.97071 221.93 2.6911C223.65 4.41149 224.618 6.744 224.621 9.177V146.822C224.618 149.255 223.65 151.588 221.93 153.308C220.209 155.029 217.876 155.996 215.443 155.999ZM38.9111 11.709C37.5428 11.7106 36.231 12.2549 35.2634 13.2224C34.2959 14.1899 33.7516 15.5017 33.75 16.87V133.515C33.7513 134.883 34.2956 136.196 35.2632 137.163C36.2307 138.131 37.5427 138.675 38.9111 138.677H203.556C204.925 138.675 206.237 138.131 207.204 137.163C208.172 136.196 208.716 134.883 208.717 133.515V16.871C208.715 15.5027 208.171 14.1909 207.204 13.2234C206.236 12.2559 204.924 11.7116 203.556 11.71L38.9111 11.709Z" fill="#5C5B5B"/>
<path opacity="0.26" d="M208.719 68.3329V16.8749C208.717 15.5067 208.172 14.195 207.205 13.2275C206.237 12.2601 204.926 11.7157 203.558 11.7139H152.1L140.39 0.00390625H215.445C217.878 0.00655321 220.21 0.974254 221.931 2.6947C223.651 4.41515 224.619 6.74783 224.622 9.18091V84.2329L208.719 68.3329Z" fill="white"/>
<path d="M0.00585938 153.919C0.0108702 155.53 0.653156 157.074 1.79248 158.213C2.9318 159.352 4.47567 159.995 6.08691 160H239.019C240.63 159.995 242.174 159.352 243.313 158.213C244.453 157.074 245.095 155.53 245.1 153.919V146.677H0L0.00585938 153.919Z" fill="#C1C9CB"/>
<g clip-path="url(#clip0_6829_7)">
<path d="M122.209 122.103C147.609 122.103 168.2 101.286 168.2 75.6071C168.2 49.9282 147.609 29.1113 122.209 29.1113C96.8094 29.1113 76.2188 49.9282 76.2188 75.6071C76.2188 101.286 96.8094 122.103 122.209 122.103Z" fill="#9EDFFF"/>
<path opacity="0.43" d="M122.21 131.214C152.587 131.214 177.212 106.318 177.212 75.6069C177.212 44.896 152.587 20 122.21 20C91.8326 20 67.207 44.896 67.207 75.6069C67.207 106.318 91.8326 131.214 122.21 131.214Z" fill="#9EDFFF"/>
<path d="M103.168 77.2454C103.168 79.5658 101.308 81.4463 99.0124 81.4463H85.3555C82.734 81.4463 80.6074 79.2964 80.6074 76.6461C80.6074 73.9958 82.734 71.8459 85.3555 71.8459C85.7634 71.8459 86.1713 71.9063 86.5684 72.0163C86.8349 69.1571 89.266 67.0071 92.1051 67.1226C94.9441 67.2381 97.1958 69.575 97.2339 72.4507C97.2339 72.8081 97.2012 73.1655 97.1251 73.5174C97.7071 73.2095 98.3543 73.0445 99.0124 73.05C101.302 73.039 103.168 74.9251 103.168 77.2454Z" fill="white"/>
<path d="M164.176 66.4846C164.176 69.5308 161.728 72.0051 158.715 72.0051H140.772C137.324 72.0051 134.534 69.1789 134.534 65.6983C134.534 62.2122 137.33 59.3859 140.772 59.3859C141.311 59.3859 141.844 59.4629 142.366 59.6059C142.714 55.8504 145.907 53.0241 149.638 53.1726C153.369 53.321 156.328 56.4002 156.376 60.1722C156.376 60.6451 156.328 61.1125 156.235 61.5744C157.002 61.1675 157.85 60.9585 158.715 60.9585C161.734 60.964 164.176 63.4329 164.176 66.4846Z" fill="white"/>
<path d="M129.765 44.3807L126.757 43.9463L122.907 70.9497L118.833 47.1684L115.842 47.6908L120.742 76.2943L125.311 75.6124L129.765 44.3807Z" fill="#D6D6D6"/>
<path d="M120.627 76.3437L104.571 52.271L102.053 53.992L115.4 74.0013L94.1288 57.2142L92.2578 59.6336L116.863 79.0489L120.627 76.3437Z" fill="#E5E5E5"/>
<path d="M134.262 51.6167L134.028 50.6929C133.784 49.7307 133.479 48.7739 133.109 47.8557C130.912 42.3351 126.719 38.0078 121.307 35.6764C115.895 33.345 109.902 33.279 104.441 35.5004C98.9806 37.7218 94.7002 41.9612 92.3942 47.4323C90.0881 52.9033 90.0228 58.9627 92.2201 64.4833C92.5845 65.4015 93.0142 66.3033 93.5037 67.1721L93.9714 68.0024L96.185 67.1006C99.4646 60.7608 104.887 55.8011 111.463 53.1288C118.038 50.4565 125.348 50.242 132.054 52.5184L134.262 51.6167Z" fill="#FFDB2D"/>
<path d="M121.312 35.671C115.895 33.3396 109.907 33.2736 104.447 35.495C104.425 35.5005 104.408 35.5115 104.387 35.517L111.403 53.1509C111.425 53.1454 111.441 53.1344 111.463 53.1289C118.033 50.4566 125.348 50.2422 132.054 52.5186L134.268 51.6168L134.034 50.693C133.789 49.7308 133.484 48.774 133.115 47.8558C130.917 42.3352 126.724 38.0079 121.312 35.671Z" fill="#FFB62D"/>
<path d="M119.446 50.693C117.042 44.6446 112.593 39.6904 106.98 36.8036L104.44 35.5005L103.505 38.2168C101.433 44.2267 101.617 50.9184 104.021 56.9613L104.185 57.3737C106.382 55.6307 108.824 54.1956 111.456 53.1288C114.083 52.0621 116.835 51.3858 119.615 51.1054L119.446 50.693Z" fill="#FF9900"/>
<path d="M119.447 50.693C117.043 44.6446 112.594 39.6904 106.981 36.8036L104.441 35.5005L104.408 35.5885L111.397 53.1563C111.419 53.1508 111.435 53.1398 111.457 53.1343C114.084 52.0676 116.836 51.3913 119.615 51.1109L119.447 50.693Z" fill="#FF7300"/>
<path d="M112.067 115.147L130.08 116.005C132.196 116.104 134.007 114.438 134.105 112.299C134.203 110.16 132.555 108.329 130.439 108.23L112.426 107.372C110.31 107.273 108.499 108.939 108.401 111.078C108.298 113.217 109.951 115.048 112.067 115.147Z" fill="#006BD6"/>
<path d="M112.137 115.23L112.643 107.202C112.676 106.696 112.295 106.262 111.795 106.229C111.294 106.196 110.865 106.58 110.832 107.086L110.326 115.114C110.294 115.62 110.674 116.054 111.175 116.087C111.67 116.115 112.105 115.73 112.137 115.23Z" fill="#01357A"/>
<path d="M111.12 113.448L111.337 110.044C111.413 108.835 110.494 107.779 109.298 107.702L106.127 107.499C104.93 107.422 103.886 108.351 103.81 109.561L103.592 112.964C103.516 114.174 104.435 115.23 105.632 115.307L108.803 115.51C109.999 115.587 111.043 114.663 111.12 113.448Z" fill="#01357A"/>
<path d="M111.37 108.268C111.674 107.828 111.565 107.213 111.125 106.91L109.123 105.508C108.688 105.2 108.079 105.31 107.78 105.755C107.475 106.195 107.584 106.811 108.025 107.114L110.026 108.516C110.461 108.818 111.065 108.708 111.37 108.268Z" fill="#01357A"/>
<path d="M148.083 106.547C145.554 100.603 137.945 98.1947 131.086 101.175C124.228 104.155 120.72 111.391 123.249 117.335C123.265 117.379 123.287 117.418 123.309 117.462C123.32 117.489 123.325 117.511 123.336 117.539L124.13 119.408L126.871 125.852C127.6 127.568 129.591 128.371 131.287 127.634L149.943 119.524C151.64 118.787 152.434 116.774 151.705 115.059L148.964 108.614L148.17 106.745C148.159 106.717 148.148 106.695 148.137 106.673C148.115 106.63 148.099 106.591 148.083 106.547Z" fill="#006BD6"/>
<path d="M153.984 98.7502L141.779 112.178C140.348 113.756 137.901 113.86 136.34 112.409C134.779 110.963 134.676 108.488 136.112 106.91L148.316 93.4826C149.747 91.9045 152.194 91.8001 153.755 93.2517C155.316 94.6978 155.419 97.1722 153.984 98.7502Z" fill="#006BD6"/>
<path d="M153.989 98.8604L148.039 93.5158C147.664 93.1804 147.631 92.5976 147.963 92.2237C148.295 91.8443 148.871 91.8113 149.241 92.1467L155.191 97.4913C155.566 97.8267 155.599 98.4095 155.267 98.7834C154.941 99.1573 154.364 99.1903 153.989 98.8604Z" fill="#01357A"/>
<path d="M153.478 96.8699L150.959 94.6045C150.062 93.7962 149.98 92.3996 150.78 91.4923L152.89 89.0894C153.69 88.1822 155.071 88.0997 155.968 88.908L158.487 91.1734C159.384 91.9817 159.466 93.3783 158.666 94.2856L156.556 96.6884C155.756 97.5957 154.369 97.6782 153.478 96.8699Z" fill="#01357A"/>
<path d="M149.687 93.3674C149.165 93.2684 148.817 92.757 148.915 92.2292L149.361 89.8043C149.459 89.2764 149.965 88.9245 150.487 89.0235C151.009 89.1225 151.357 89.6339 151.259 90.1617L150.813 92.5866C150.715 93.1144 150.209 93.4663 149.687 93.3674Z" fill="#01357A"/>
<path d="M127.72 131.544L119.861 126.139C118.659 125.314 118.343 123.642 119.165 122.433L119.654 121.707C120.47 120.492 122.123 120.178 123.32 121.003L131.179 126.408C132.381 127.233 132.696 128.905 131.875 130.114L131.386 130.84C130.57 132.05 128.922 132.369 127.72 131.544Z" fill="#006BD6"/>
<path d="M134.563 126.113L123.949 118.815L120.903 123.344L131.516 130.642L134.563 126.113Z" fill="#006BD6"/>
<path d="M154.07 121.509L156.887 112.331C157.317 110.929 156.534 109.428 155.147 108.994L154.315 108.73C152.928 108.296 151.443 109.087 151.013 110.489L148.196 119.667C147.766 121.069 148.549 122.57 149.936 123.004L150.768 123.268C152.15 123.702 153.64 122.911 154.07 121.509Z" fill="#006BD6"/>
<path d="M150.543 123.199L154.35 110.807L149.176 109.182L145.369 121.575L150.543 123.199Z" fill="#006BD6"/>
<path d="M136.335 104.37L130.928 106.74C119.67 111.677 106.459 106.399 101.581 95.0167C96.6965 83.6347 101.918 70.2787 113.176 65.3465L118.582 62.9766C129.841 58.0389 143.051 63.3175 147.93 74.6995C152.814 86.087 147.598 99.4375 136.335 104.37Z" fill="#0075D6"/>
<path d="M121.215 58.8526L108.928 64.2356C107.65 64.7965 107.063 66.3086 107.612 67.5953C108.167 68.8874 109.663 69.4813 110.935 68.9259L123.227 63.5428C124.505 62.982 125.092 61.4699 124.543 60.1832C123.988 58.8911 122.493 58.2917 121.215 58.8526Z" fill="#01357A"/>
<path d="M115.685 62.2179L115.147 62.4543C115.054 62.4928 114.951 62.4543 114.907 62.3609L109.74 50.319C109.702 50.2256 109.746 50.1211 109.833 50.0771L110.371 49.8407C110.464 49.8022 110.567 49.8462 110.611 49.9341L115.778 61.976C115.816 62.0694 115.777 62.1739 115.685 62.2179Z" fill="#01357A"/>
<path d="M112.584 47.5861C113.291 49.2302 112.541 51.1382 110.914 51.853C109.288 52.5678 107.401 51.809 106.694 50.1649C105.987 48.5208 106.737 46.6128 108.364 45.898C109.99 45.1832 111.883 45.942 112.584 47.5861Z" fill="#01357A"/>
<path d="M118.794 70.9551C126.071 67.7659 134.137 69.7344 138.33 75.2605L142.208 73.5614C137.134 66.1329 126.691 63.3781 117.304 67.491C107.917 71.6039 102.772 81.1934 104.664 90.0131L108.542 88.314C107.427 81.4463 111.523 74.1443 118.794 70.9551Z" fill="white"/>
<path d="M130.711 98.7445C123.434 101.934 115.368 99.9652 111.175 94.4391L107.297 96.1382C112.371 103.567 122.814 106.322 132.201 102.209C141.583 98.0957 146.734 88.5062 144.841 79.6865L140.963 81.3856C142.084 88.2588 137.988 95.5553 130.711 98.7445Z" fill="white"/>
<path d="M113.444 85.4877L113.166 85.6087C111.404 86.3675 110.577 88.4404 111.328 90.2219L112.563 93.1582C112.835 93.8015 113.275 94.3184 113.808 94.6813C114.085 94.5603 116.092 93.73 118.899 93.6585C119.551 92.6963 119.726 91.4316 119.241 90.2879L118.007 87.3517C117.256 85.5647 115.206 84.7289 113.444 85.4877Z" fill="white"/>
<path d="M115.097 87.5935L114.923 87.6705C114.205 87.9784 113.873 88.8197 114.177 89.5455L115.015 91.5414C115.32 92.2672 116.152 92.6027 116.87 92.2947L117.044 92.2178C117.762 91.9098 118.093 91.0686 117.789 90.3427L116.951 88.3468C116.647 87.6265 115.815 87.2856 115.097 87.5935Z" fill="black"/>
<path d="M115.186 88.05C115.349 88.4349 115.169 88.8858 114.788 89.0507C114.408 89.2157 113.962 89.0342 113.799 88.6493C113.635 88.2644 113.815 87.8135 114.196 87.6486C114.582 87.4781 115.028 87.6596 115.186 88.05Z" fill="white"/>
<path d="M132.951 77.2455L133.223 77.1245C134.98 76.3547 137.036 77.1795 137.797 78.95L139.053 81.8753C139.325 82.5131 139.396 83.1949 139.287 83.8383C139.01 83.9592 137.03 84.8555 135.045 86.8625C133.908 86.681 132.88 85.9332 132.391 84.795L131.135 81.8698C130.384 80.0992 131.2 78.0153 132.951 77.2455Z" fill="white"/>
<path d="M133.327 79.9123L133.501 79.8353C134.214 79.5219 135.051 79.8573 135.361 80.5776L136.215 82.5681C136.525 83.2884 136.193 84.1352 135.481 84.4486L135.307 84.5256C134.594 84.839 133.757 84.5036 133.447 83.7833L132.593 81.7928C132.283 81.0725 132.615 80.2257 133.327 79.9123Z" fill="black"/>
<path d="M133.593 80.2861C133.756 80.671 134.202 80.8525 134.583 80.682C134.963 80.5171 135.143 80.0662 134.974 79.6813C134.811 79.2964 134.365 79.1149 133.984 79.2854C133.598 79.4559 133.424 79.9012 133.593 80.2861Z" fill="white"/>
</g>
<path opacity="0.48" d="M287.114 91.4384C288.899 80.3243 286.435 69.0281 280.169 59.6729C273.965 50.3138 264.388 43.6916 253.475 41.0725C242.563 38.4535 231.023 40.047 221.239 45.5173C211.456 50.9876 204.101 59.977 200.648 70.6877C197.973 71.421 195.597 72.895 193.763 74.9681C191.926 76.9782 190.691 79.5206 190.227 82.2686C189.759 84.9536 190.059 87.7812 191.1 90.3104C192.141 92.8396 193.922 95.0703 196.169 96.6401L194.447 104.651C194.024 106.005 193.148 107.198 191.927 107.905C191.249 108.2 190.438 108.376 189.678 108.359C188.918 108.343 188.15 108.2 187.434 107.865C186.776 107.462 186.115 106.997 185.577 106.461C184.235 105.215 182.418 103.429 179.578 104.552C175.008 106.35 175.582 110.552 175.73 111.935C175.987 114.069 176.733 120.032 176.823 120.469C176.823 120.469 176.76 120.473 176.764 120.536C176.397 120.748 176.101 121.083 175.936 121.472C175.77 121.862 175.734 122.307 175.883 122.677C176.032 123.047 176.244 123.414 176.638 123.643C176.969 123.875 177.417 123.974 177.795 123.951L178.182 127.153C178.189 127.279 178.26 127.401 178.331 127.523C178.405 127.708 178.602 127.823 178.736 127.941C178.933 128.055 179.122 128.044 179.311 128.032C179.437 128.025 179.559 127.954 179.681 127.883C179.803 127.812 179.925 127.742 179.981 127.612C180.036 127.482 180.095 127.415 180.15 127.285C180.206 127.155 180.198 127.029 180.19 126.903L179.804 123.701L179.867 123.697C180.308 123.67 180.674 123.458 180.97 123.124C181.266 122.789 181.432 122.4 181.472 122.018C181.507 121.573 181.358 121.203 181.146 120.836C180.871 120.474 180.54 120.241 180.154 120.138C180.091 120.142 179.962 120.087 179.899 120.091C179.785 119.275 179.126 113.687 178.81 111.619C178.474 109.237 178.979 108.194 180.767 107.451C181.63 107.082 182.157 107.429 183.566 108.734C184.376 109.57 185.305 110.272 186.347 110.777L186.41 110.773C187.516 111.275 188.666 111.457 189.867 111.447C191.068 111.436 192.25 111.111 193.294 110.604C195.248 109.472 196.715 107.611 197.34 105.423L197.336 105.359L198.86 98.2458L198.99 98.301L198.587 99.9702C198.345 101.187 198.545 102.376 199.177 103.412C199.81 104.449 200.806 105.21 202.026 105.514C202.861 105.716 203.743 105.662 204.546 105.36C205.35 105.057 206.079 104.57 206.607 103.905L194.524 154.357C194.323 155.192 194.251 156.082 194.427 156.893C194.544 157.771 194.846 158.575 195.334 159.304C195.758 160.037 196.364 160.632 197.029 161.161C197.69 161.626 198.473 162.021 199.304 162.159L246.234 173.51C247.068 173.711 247.958 173.783 248.77 173.607C249.648 173.49 250.452 173.188 251.181 172.7C251.914 172.276 252.509 171.67 253.037 171.005C253.503 170.344 253.897 169.561 254.036 168.73L267.503 113.007L266.689 116.219C266.443 117.373 266.646 118.625 267.279 119.661C267.912 120.698 268.908 121.459 270.128 121.763C270.707 121.918 271.341 121.942 271.904 121.844C272.53 121.742 273.085 121.519 273.574 121.236C274.059 120.89 274.54 120.481 274.891 120.016C275.242 119.552 275.522 118.966 275.613 118.391L276.021 116.785C279.072 117.04 282.129 116.347 284.753 114.794C287.377 113.242 289.447 110.901 290.667 108.107C291.887 105.312 292.202 102.194 291.575 99.1968C290.948 96.1995 289.388 93.4492 287.114 91.4384ZM273.505 88.1627L275.578 79.6871C275.78 78.8525 275.856 78.0257 275.742 77.2104C275.629 76.3952 275.327 75.5916 274.902 74.8587C274.478 74.1258 273.868 73.4675 273.203 72.9391C272.475 72.4146 271.696 72.0829 270.862 71.8812L223.932 60.531C223.097 60.3292 222.207 60.2573 221.396 60.4336C220.518 60.5507 219.714 60.853 218.985 61.3405C218.252 61.7649 217.657 62.3707 217.128 63.0355C216.663 63.6966 216.268 64.4797 216.129 65.3104L215.022 69.9321C214.845 69.1207 214.417 68.3248 213.811 67.7295C213.205 67.1342 212.481 66.6727 211.647 66.471C210.749 66.2731 209.804 66.331 208.941 66.7002C212.9 59.0576 219.353 52.9063 227.165 49.3278C235.041 45.7455 243.843 44.8891 252.252 46.9029C260.661 48.9167 268.102 53.7094 273.513 60.4608C278.861 67.2161 281.84 75.5714 281.929 84.2305C281.323 83.6352 280.599 83.1737 279.764 82.9719C278.611 82.7265 277.358 82.9298 276.322 83.5627C275.286 84.1955 274.524 85.1908 274.22 86.4112L273.765 88.2732L273.505 88.1627Z" fill="white" stroke="white" stroke-width="12" stroke-miterlimit="10"/>
<path d="M180.374 126.828L179.917 123.505C179.909 123.379 179.838 123.256 179.767 123.134C179.697 123.012 179.626 122.89 179.496 122.835C179.362 122.716 179.169 122.665 178.913 122.617C178.724 122.629 178.535 122.641 178.354 122.778C178.169 122.853 178.055 123.05 177.936 123.183C177.822 123.38 177.833 123.569 177.845 123.758L178.302 127.082C178.31 127.208 178.38 127.33 178.451 127.452C178.522 127.575 178.593 127.697 178.723 127.752C178.852 127.807 178.919 127.866 179.049 127.922C179.179 127.977 179.305 127.969 179.431 127.961C179.557 127.954 179.679 127.883 179.801 127.812C179.987 127.738 180.101 127.541 180.219 127.407C180.334 127.21 180.385 127.018 180.374 126.828Z" fill="#777777"/>
<path d="M177.981 123.877L179.989 123.627C180.241 123.612 180.489 123.533 180.671 123.396C180.852 123.258 181.096 123.117 181.211 122.92C181.388 122.719 181.502 122.523 181.55 122.267C181.598 122.011 181.645 121.755 181.57 121.57C181.555 121.318 181.477 121.07 181.339 120.888C181.201 120.707 181.06 120.463 180.863 120.348C180.662 120.171 180.47 120.119 180.21 120.009C179.954 119.961 179.698 119.914 179.513 119.988L177.567 120.234C177.315 120.25 177.067 120.328 176.886 120.466C176.704 120.603 176.523 120.741 176.346 120.942C176.109 121.209 176.006 121.595 175.963 121.914C175.919 122.233 176.005 122.607 176.217 122.973C176.426 123.277 176.693 123.513 177.02 123.683C177.284 123.857 177.669 123.959 177.981 123.877Z" fill="#4B4B4B"/>
<path d="M176.948 120.461L179.961 120.086C179.957 120.023 179.192 113.746 178.864 111.489C178.528 109.106 179.033 108.064 180.822 107.321C181.684 106.952 182.212 107.299 183.62 108.604C184.43 109.44 185.359 110.142 186.402 110.647L186.469 110.706C187.575 111.208 188.724 111.39 189.925 111.38C191.126 111.369 192.308 111.044 193.352 110.537C195.307 109.405 196.774 107.544 197.398 105.355L197.394 105.292L202.351 81.967L199.402 81.3258L194.442 104.588C194.019 105.942 193.143 107.134 191.922 107.842C191.244 108.136 190.433 108.313 189.673 108.296C188.913 108.279 188.145 108.137 187.429 107.801C186.772 107.399 186.111 106.934 185.572 106.397C184.23 105.152 182.413 103.366 179.573 104.489C175.003 106.287 175.577 110.489 175.725 111.872C176.179 114.12 176.944 120.398 176.948 120.461Z" fill="#4B4B4B"/>
<path d="M282.115 113.059L276.336 111.643L280.715 93.349C283.078 83.401 281.361 72.9445 276.019 64.2282C270.677 55.512 262.072 49.2728 252.187 46.9069C242.235 44.4819 231.774 46.1357 223.054 51.4142C214.334 56.6928 208.027 65.2384 205.602 75.1902L201.16 93.4877L195.38 92.0715L199.823 73.774C202.664 62.3421 209.901 52.4744 219.961 46.3547C230.021 40.235 242.112 38.3546 253.603 41.1279C265.095 43.9012 274.959 51.075 281.142 61.1311C287.324 71.1871 289.268 83.2741 286.554 94.6984L282.115 113.059Z" fill="#4B4B4B"/>
<path d="M206.758 99.1522C214.718 97.9681 220.27 90.5438 219.086 82.5844C217.902 74.6249 210.478 69.0722 202.518 70.2564C194.558 71.4405 189.005 78.8648 190.19 86.8242C191.374 94.7837 198.798 100.336 206.758 99.1522Z" fill="#4B4B4B"/>
<path d="M202.081 105.384C200.924 105.076 199.866 104.318 199.233 103.282C198.6 102.246 198.397 100.993 198.642 99.8399L205.91 69.8584C206.218 68.7011 206.975 67.6427 208.012 67.0099C209.048 66.3771 210.301 66.1737 211.454 66.4192C212.612 66.7276 213.67 67.4849 214.303 68.5212C214.936 69.5575 215.139 70.8099 214.893 71.9634L207.626 101.945C207.472 102.524 207.254 103.106 206.903 103.57C206.552 104.035 206.075 104.507 205.587 104.79C205.102 105.136 204.48 105.3 203.916 105.398C203.294 105.563 202.66 105.538 202.081 105.384Z" fill="#777777"/>
<path d="M289.305 110.658C293.959 104.048 292.324 94.9141 285.717 90.3232C279.107 85.6692 269.973 87.3049 265.382 93.9111C260.791 100.517 262.364 109.655 268.97 114.246C275.577 118.837 284.651 117.268 289.305 110.658Z" fill="#4B4B4B"/>
<path d="M270.189 74.3259L223.196 62.9796C222.681 62.8215 222.176 62.8525 221.672 62.8834C221.172 62.9773 220.676 63.1343 220.187 63.4173C219.762 63.6964 219.34 64.0384 219.052 64.4988C218.76 64.8962 218.539 65.4158 218.444 65.9275L196.906 155.034C196.748 155.549 196.779 156.053 196.809 156.557C196.903 157.058 197.06 157.554 197.343 158.042C197.622 158.468 197.965 158.89 198.425 159.178C198.822 159.47 199.342 159.691 199.854 159.786L246.847 171.132C247.362 171.29 247.866 171.259 248.37 171.228C248.871 171.134 249.367 170.977 249.856 170.694C250.281 170.415 250.703 170.073 250.991 169.613C251.283 169.216 251.504 168.696 251.599 168.184L273.137 79.0782C273.232 78.5664 273.264 78.0584 273.233 77.5544C273.139 77.0542 272.982 76.5578 272.699 76.0692C272.42 75.6437 272.078 75.2219 271.618 74.934C271.22 74.6421 270.701 74.421 270.189 74.3259Z" fill="white"/>
<path d="M248.457 171.603C247.894 171.7 247.323 171.672 246.744 171.518L199.751 160.172C199.177 160.08 198.653 159.796 198.193 159.508C197.729 159.157 197.323 158.74 197.04 158.251C196.757 157.762 196.534 157.207 196.436 156.644C196.338 156.08 196.362 155.446 196.52 154.931L218.059 65.8248C218.15 65.25 218.434 64.7266 218.722 64.2662C219.073 63.802 219.491 63.3969 219.979 63.1139C220.468 62.8309 221.023 62.6071 221.587 62.5093C222.15 62.4115 222.784 62.4358 223.3 62.5939L270.293 73.9402C270.871 74.0945 271.391 74.3156 271.855 74.6665C272.319 75.0175 272.724 75.4354 273.011 75.987C273.294 76.4756 273.518 77.031 273.616 77.5942C273.714 78.1575 273.685 78.7284 273.531 79.3071L251.993 168.413C251.902 168.988 251.618 169.511 251.33 169.972C250.979 170.436 250.561 170.841 250.072 171.124C249.58 171.344 249.02 171.505 248.457 171.603ZM221.759 63.2576C221.259 63.3516 220.826 63.5047 220.396 63.7208C220.03 63.933 219.671 64.2712 219.379 64.6686C219.087 65.066 218.921 65.4556 218.822 65.9044L197.284 155.01C197.185 155.459 197.153 155.967 197.243 156.404C197.333 156.842 197.49 157.338 197.703 157.704C197.915 158.071 198.253 158.429 198.65 158.721C199.048 159.013 199.437 159.179 199.886 159.278L246.879 170.624C247.328 170.723 247.836 170.755 248.273 170.665C248.71 170.575 249.207 170.418 249.573 170.206C249.94 169.994 250.298 169.656 250.59 169.258C250.882 168.861 251.048 168.471 251.147 168.022L272.685 78.9163C272.784 78.4675 272.82 78.0226 272.73 77.5854C272.64 77.1482 272.487 76.7149 272.271 76.2854C272.054 75.856 271.716 75.4972 271.323 75.2684C270.925 74.9766 270.473 74.8146 270.02 74.6527L223.027 63.3063C222.708 63.2626 222.2 63.2306 221.759 63.2576Z" fill="#555555"/>
<path d="M257.665 71.2366L235.899 65.9316C235.513 65.8287 235.076 65.9188 234.773 66.1272C234.406 66.3394 234.174 66.6699 234.071 67.0557L233.205 70.4608C233.102 70.8466 233.192 71.2838 233.4 71.5872C233.612 71.9537 233.943 72.1864 234.329 72.2892L256.095 77.5942C256.481 77.697 256.918 77.607 257.221 77.3986C257.588 77.1864 257.821 76.8559 257.923 76.4701L258.79 73.0649C258.829 72.683 258.802 72.242 258.594 71.9385C258.323 71.6389 257.992 71.4063 257.665 71.2366Z" fill="#555555"/>
<path d="M248.709 173.674C247.894 173.787 247.008 173.778 246.173 173.576L199.243 162.226C198.408 162.024 197.629 161.693 196.968 161.227C196.307 160.762 195.697 160.104 195.273 159.371C194.849 158.638 194.546 157.834 194.366 156.96C194.249 156.082 194.262 155.259 194.463 154.424L216.006 65.3811C216.207 64.5465 216.539 63.7672 217.004 63.1062C217.47 62.4452 218.128 61.8356 218.861 61.4111C219.594 60.9867 220.398 60.6844 221.272 60.5042C222.15 60.3871 222.973 60.3998 223.808 60.6016L270.738 71.9518C271.572 72.1536 272.352 72.4852 273.08 73.0098C273.807 73.5343 274.35 74.1334 274.779 74.9293C275.203 75.6622 275.505 76.4659 275.619 77.2811C275.732 78.0963 275.723 78.9823 275.454 79.7577L253.912 168.801C253.71 169.635 253.379 170.415 252.913 171.076C252.448 171.737 251.79 172.346 251.057 172.771C250.45 173.187 249.583 173.494 248.709 173.674ZM222.074 65.3249C221.885 65.3365 221.7 65.4111 221.518 65.5487C221.333 65.6234 221.215 65.7571 221.097 65.8909C220.978 66.0246 220.927 66.2175 220.875 66.4104L199.341 155.579C199.29 155.772 199.301 155.961 199.313 156.15C199.325 156.339 199.399 156.525 199.537 156.706C199.611 156.891 199.745 157.009 199.879 157.128C200.013 157.246 200.205 157.297 200.398 157.349L247.458 168.754C247.651 168.806 247.84 168.794 248.029 168.782C248.218 168.771 248.403 168.696 248.585 168.559C248.77 168.484 248.888 168.35 249.006 168.216C249.125 168.083 249.176 167.89 249.227 167.697L270.762 78.5278C270.813 78.3349 270.802 78.1459 270.79 77.9569C270.778 77.7679 270.704 77.5827 270.629 77.3976C270.492 77.2163 270.358 77.098 270.224 76.9797C270.09 76.8614 269.894 76.747 269.705 76.7586L222.645 65.3531C222.452 65.3017 222.263 65.3133 222.074 65.3249Z" fill="#555555"/>
<path d="M270.131 121.828C268.974 121.519 267.915 120.762 267.283 119.726C266.65 118.689 266.446 117.437 266.692 116.283L273.96 86.3018C274.268 85.1444 275.025 84.086 276.062 83.4532C277.098 82.8204 278.35 82.6171 279.504 82.8625C280.661 83.171 281.72 83.9282 282.353 84.9645C282.985 86.0009 283.189 87.2533 282.943 88.4068L275.676 118.388C275.521 118.967 275.304 119.549 274.953 120.014C274.602 120.478 274.125 120.95 273.637 121.233C273.152 121.579 272.529 121.744 271.966 121.841C271.403 121.939 270.71 121.982 270.131 121.828Z" fill="#777777"/>
<path d="M262.727 84.6494L224.076 75.2577C223.179 75.0598 222.324 75.555 222.126 76.4526C221.928 77.3502 222.423 78.2052 223.321 78.4031L261.972 87.7948C262.869 87.9927 263.724 87.4975 263.922 86.5999C264.124 85.7654 263.625 84.8473 262.727 84.6494Z" fill="#EBE3E3"/>
<path d="M250.562 134.792L212.876 125.657C211.463 125.301 210.123 126.142 209.767 127.556L209.114 130.315C208.758 131.728 209.599 133.068 211.012 133.424L248.699 142.559C250.112 142.915 251.452 142.074 251.808 140.66L252.461 137.901C252.758 136.554 251.913 135.152 250.562 134.792Z" stroke="#EBE3E3" stroke-width="1.0003" stroke-miterlimit="10"/>
<path d="M248.081 144.873L210.391 135.676C208.977 135.32 207.638 136.161 207.282 137.574L206.629 140.334C206.273 141.747 207.114 143.087 208.527 143.443L246.214 152.577C247.627 152.933 248.967 152.092 249.323 150.679L249.975 147.919C250.335 146.569 249.49 145.166 248.081 144.873Z" stroke="#EBE3E3" stroke-width="1.0003" stroke-miterlimit="10"/>
<path d="M245.656 154.824L207.97 145.69C206.556 145.334 205.217 146.175 204.861 147.588L204.208 150.348C203.852 151.761 204.693 153.101 206.106 153.457L243.793 162.591C245.206 162.947 246.546 162.106 246.902 160.693L247.555 157.933C247.911 156.52 247.069 155.18 245.656 154.824Z" stroke="#EBE3E3" stroke-width="1.0003" stroke-miterlimit="10"/>
<path d="M237.623 78.5373L224.076 75.2577C223.179 75.0598 222.324 75.555 222.126 76.4526C221.928 77.3502 222.423 78.2052 223.321 78.4031L236.867 81.6827C237.765 81.8806 238.62 81.3854 238.818 80.4879C239.019 79.6533 238.457 78.7391 237.623 78.5373Z" fill="#89E219"/>
<path d="M258.784 90.4576L225.849 82.486C223.408 81.8768 220.91 83.4215 220.363 85.8584L212.685 117.383C212.075 119.824 213.62 122.322 216.057 122.868L248.992 130.84C251.433 131.449 253.931 129.904 254.477 127.467L262.156 95.9427C262.769 93.565 261.287 91.0629 258.784 90.4576Z" fill="#1CB0F6"/>
<path d="M239.118 95.7122C239.193 95.8974 239.208 96.1494 239.161 96.4053L234.039 116.009C233.928 116.269 233.755 116.533 233.511 116.674C233.266 116.816 232.955 116.898 232.632 116.791C232.439 116.74 232.243 116.626 232.042 116.448L226.245 109.594L224.509 109.131C224.187 109.025 223.86 108.855 223.533 108.685C223.266 108.449 222.998 108.212 222.853 107.905C222.645 107.601 222.558 107.227 222.539 106.912C222.516 106.534 222.496 106.219 222.599 105.833L224.063 99.7983C224.17 99.4756 224.34 99.1489 224.509 98.8223C224.746 98.5548 224.982 98.2873 225.29 98.1419C225.593 97.9336 225.967 97.8474 226.282 97.8281C226.66 97.8049 226.975 97.7855 227.361 97.8883L228.904 98.2996L237.563 95.1119C237.685 95.0412 237.875 95.0296 238.001 95.0218C238.127 95.0141 238.319 95.0655 238.449 95.1208C238.579 95.1761 238.713 95.2943 238.843 95.3496C238.973 95.4049 239.047 95.5901 239.118 95.7122ZM247.657 97.7813C249.392 99.2559 250.65 101.203 251.285 103.314C251.988 105.484 252.001 107.76 251.439 109.945C250.878 112.13 249.67 114.101 248.058 115.655C246.383 117.212 244.358 118.222 242.172 118.673C241.983 118.684 241.793 118.696 241.664 118.64C241.471 118.589 241.341 118.534 241.144 118.419C241.01 118.301 240.877 118.183 240.743 118.065C240.609 117.946 240.597 117.757 240.523 117.572C240.511 117.383 240.5 117.194 240.555 117.064C240.606 116.871 240.662 116.741 240.776 116.545C240.894 116.411 241.013 116.277 241.131 116.143C241.253 116.073 241.438 115.998 241.623 115.923C243.309 115.567 244.905 114.773 246.225 113.617C247.479 112.402 248.398 110.891 248.865 109.218C249.331 107.545 249.286 105.777 248.741 104.103C248.195 102.428 247.22 100.97 245.886 99.8505C245.619 99.6139 245.47 99.2436 245.45 98.9286C245.427 98.5505 245.534 98.2278 245.767 97.8973C245.885 97.7635 246.003 97.6298 246.188 97.5552C246.374 97.4805 246.559 97.4059 246.685 97.3982C246.874 97.3866 247.067 97.438 247.196 97.4933C247.326 97.5486 247.523 97.663 247.657 97.7813ZM243.249 102.226C244.115 102.932 244.744 103.905 245.065 105.024C245.383 106.079 245.457 107.277 245.144 108.371C244.832 109.465 244.26 110.449 243.42 111.196C242.581 111.943 241.604 112.509 240.477 112.705C240.288 112.717 240.099 112.728 239.969 112.673C239.776 112.622 239.646 112.566 239.45 112.452C239.316 112.334 239.182 112.215 239.048 112.097C238.978 111.975 238.903 111.79 238.828 111.605C238.817 111.416 238.805 111.226 238.861 111.097C238.912 110.904 238.967 110.774 239.082 110.577C239.2 110.443 239.318 110.31 239.436 110.176C239.559 110.105 239.744 110.03 239.929 109.956C240.555 109.854 241.107 109.567 241.525 109.162C241.943 108.757 242.29 108.23 242.44 107.588C242.594 107.01 242.556 106.379 242.395 105.82C242.234 105.261 241.884 104.713 241.416 104.299C241.148 104.062 240.999 103.692 240.98 103.377C240.957 102.999 241.063 102.676 241.3 102.409C241.418 102.275 241.537 102.141 241.722 102.067C241.907 101.992 242.029 101.921 242.218 101.91C242.407 101.898 242.596 101.887 242.726 101.942C242.982 101.989 243.116 102.108 243.249 102.226Z" fill="white"/>
<defs>
<clipPath id="clip0_6829_7">
<rect width="110" height="112" fill="white" transform="translate(67.207 20)"/>
</clipPath>
</defs>
</svg>
