<svg width="204" height="80" viewBox="0 0 204 80" fill="none" xmlns="http://www.w3.org/2000/svg">
<path d="M167.038 60.8308L164.893 48.5612C164.364 45.5383 167.354 43.1777 170.085 44.4619L199.972 58.5103C202.216 59.5645 201.785 62.9469 199.357 63.3306L175.575 67.0939C171.558 67.7298 167.756 64.9412 167.038 60.8308Z" fill="white"/>
<path opacity="0.2" d="M174.461 66.0335L200.889 62.7783" stroke="#1CB0F6" stroke-width="3.76889" stroke-linecap="round"/>
<path d="M167.038 60.8308L164.893 48.5612C164.364 45.5383 167.354 43.1777 170.085 44.4619L199.972 58.5103C202.216 59.5645 201.785 62.9469 199.357 63.3306L175.575 67.0939C171.558 67.7298 167.756 64.9412 167.038 60.8308Z" stroke="#1CB0F6" stroke-width="1.2563" stroke-linecap="round" stroke-linejoin="round"/>
<path opacity="0.4" d="M155.932 53.4558C142.822 52.1225 130.68 45.8197 122.104 35.8965L104.174 15.1507C91.0316 -0.0567168 66.4512 3.00151 58.1562 20.8746L35.797 69.0545C27.839 86.2024 1.36963 79.4079 2.46056 60.498" stroke="#84D8FF" stroke-width="1.2563" stroke-linecap="round" stroke-dasharray="3.14 5.65"/>
<path d="M162.157 55.7521L165.093 49.9784L202.185 60.5899C202.339 60.6339 202.443 60.7803 202.435 60.9428C202.433 60.9959 202.384 61.0342 202.333 61.0226L165.568 52.7215L162.157 55.7521Z" fill="white"/>
<path d="M162.157 55.7521L165.093 49.9784L202.185 60.5899C202.339 60.6339 202.443 60.7803 202.435 60.9428C202.433 60.9959 202.384 61.0342 202.333 61.0226L165.568 52.7215L162.157 55.7521Z" fill="#3C5D87" fill-opacity="0.2"/>
<path d="M162.157 55.7521L165.093 49.9784L202.185 60.5899C202.339 60.6339 202.443 60.7803 202.435 60.9428C202.433 60.9959 202.384 61.0342 202.333 61.0226L165.568 52.7215L162.157 55.7521Z" stroke="#1CB0F6" stroke-width="1.2563" stroke-linecap="round" stroke-linejoin="round"/>
<path d="M166.457 57.7988L163.64 57.0421C162.666 56.7805 162.373 55.5066 163.135 54.842L165.568 52.7192L166.457 57.7988Z" fill="white"/>
<path d="M166.457 57.7988L163.64 57.0421C162.666 56.7805 162.373 55.5066 163.135 54.842L165.568 52.7192L166.457 57.7988Z" fill="#3C5D87" fill-opacity="0.15"/>
<path d="M166.457 57.7988L163.64 57.0421C162.666 56.7805 162.373 55.5066 163.135 54.842L165.568 52.7192L166.457 57.7988Z" stroke="#1CB0F6" stroke-width="1.2563" stroke-linecap="round" stroke-linejoin="round"/>
<path opacity="0.2" d="M164.887 54.4531L165.517 57.3042" stroke="#1CB0F6" stroke-width="3.76889" stroke-linecap="round"/>
<path opacity="0.2" d="M165.593 52.3389L200.98 60.7482" stroke="#1CB0F6" stroke-width="2.5126" stroke-linecap="round"/>
</svg>
