<svg xmlns="http://www.w3.org/2000/svg" width="377" height="377" viewBox="0 0 377 377"><g transform="translate(-15.276 -171.491)"><g transform="translate(15.276 171.491)"><g transform="translate(0 0)"><circle cx="133.637" cy="133.637" r="133.637" transform="translate(54.863 54.863)" fill="#9edfff"/><circle cx="159.827" cy="159.827" r="159.827" transform="translate(28.673 28.673)" fill="#9edfff" opacity="0.43"/><circle cx="188.5" cy="188.5" r="188.5" fill="#9edfff" opacity="0.12"/></g><g transform="translate(67.605 124.014)"><path d="M501.007,2493.441a12.076,12.076,0,0,1-12.076,12.077H449.248a13.8,13.8,0,0,1,0-27.605,13.354,13.354,0,0,1,3.521.484,15.527,15.527,0,0,1,30.986,1.241,15.143,15.143,0,0,1-.31,3.073,11.725,11.725,0,0,1,5.487-1.347A12.078,12.078,0,0,1,501.007,2493.441Z" transform="translate(-435.446 -2424.247)" fill="#fff"/><path d="M709.407,2454.563a15.868,15.868,0,0,1-15.868,15.868H641.4a18.136,18.136,0,0,1,0-36.273,17.578,17.578,0,0,1,4.627.636,20.4,20.4,0,0,1,40.715,1.631,19.939,19.939,0,0,1-.407,4.037,15.423,15.423,0,0,1,7.208-1.769A15.869,15.869,0,0,1,709.407,2454.563Z" transform="translate(-466.554 -2416.293)" fill="#fff"/></g></g><g transform="translate(111.976 240.049)"><path d="M598.627,2385.773l-8.736-1.258L578.7,2462.128l-11.836-68.353-8.7,1.506L572.4,2477.5l13.279-1.959Z" transform="translate(-484.867 -2355.573)" fill="#d6d6d6"/><path d="M558.464,2482.389l-46.655-69.184-7.318,4.935,38.786,57.515L481.465,2427.4l-5.431,6.957,71.493,55.811Z" transform="translate(-471.263 -2360.325)" fill="#e5e5e5"/><path d="M597.147,2400.82l-.678-2.66a64.727,64.727,0,0,0-2.663-8.153A64.04,64.04,0,0,0,474.976,2437.8a64.859,64.859,0,0,0,3.722,7.727l1.353,2.387,6.436-2.588a86.58,86.58,0,0,1,104.224-41.917Z" transform="translate(-470.316 -2349.828)" fill="#ffdb2d"/><path d="M567.45,2354.994a63.618,63.618,0,0,0-49.012-.505l-.168.07,20.383,50.68c.056-.023.111-.047.168-.069a86.6,86.6,0,0,1,59.834-1.76l6.435-2.588-.678-2.66a64.785,64.785,0,0,0-2.663-8.153A63.616,63.616,0,0,0,567.45,2354.994Z" transform="translate(-478.259 -2349.828)" fill="#ffb62d"/><path d="M560.7,2399.083a76.912,76.912,0,0,0-36.219-39.919l-7.377-3.751-2.725,7.813a76.914,76.914,0,0,0,1.505,53.88h0l.479,1.191a86.454,86.454,0,0,1,44.827-18.024l-.49-1.191Z" transform="translate(-476.926 -2350.754)" fill="#f90"/><path d="M562.049,2399.083a76.911,76.911,0,0,0-36.219-39.919l-7.377-3.751-.091.26,20.305,50.489c.057-.022.112-.047.169-.069a86.586,86.586,0,0,1,23.7-5.819Z" transform="translate(-478.274 -2350.754)" fill="#ff7300"/><path d="M542.895,2625.362l52.352,2.466a11.22,11.22,0,0,0,11.7-10.649h0a11.22,11.22,0,0,0-10.648-11.7l-52.353-2.466a11.221,11.221,0,0,0-11.7,10.648h0A11.22,11.22,0,0,0,542.895,2625.362Z" transform="translate(-480.571 -2391.76)" fill="#006bd6"/><g transform="translate(37.308 205.382)"><path d="M544.214,2624.942l1.474-23.077a2.644,2.644,0,0,0-2.462-2.8h0a2.643,2.643,0,0,0-2.8,2.463l-1.474,23.077a2.642,2.642,0,0,0,2.462,2.8h0A2.643,2.643,0,0,0,544.214,2624.942Z" transform="translate(-518.992 -2596.489)" fill="#01357a"/><rect width="22.474" height="21.906" rx="7.597" transform="translate(23.294 7.238) rotate(93.655)" fill="#01357a"/><path d="M540.428,2604.422h0a2.818,2.818,0,0,0-.708-3.909l-5.82-4.035a2.816,2.816,0,0,0-3.908.707h0a2.817,2.817,0,0,0,.708,3.909l5.819,4.037A2.819,2.819,0,0,0,540.428,2604.422Z" transform="translate(-517.426 -2595.979)" fill="#01357a"/></g><path d="M655.654,2596.375c-7.348-17.091-29.457-24-49.382-15.435S576.151,2610.3,583.5,2627.4c.053.124.114.24.169.362.029.073.05.146.081.217l2.312,5.379,7.963,18.522a9.8,9.8,0,0,0,12.832,5.116l54.208-23.306a9.8,9.8,0,0,0,5.115-12.832l-7.963-18.521-2.312-5.379c-.031-.072-.07-.137-.1-.208C655.75,2596.622,655.707,2596.5,655.654,2596.375Z" transform="translate(-488.668 -2387.498)" fill="#006bd6"/><g transform="translate(129.265 153.974)"><path d="M680.115,2569.59l-35.463,38.591a11.219,11.219,0,0,1-15.806.668h0a11.221,11.221,0,0,1-.668-15.807l35.463-38.591a11.22,11.22,0,0,1,15.807-.667h0A11.219,11.219,0,0,1,680.115,2569.59Z" transform="translate(-625.241 -2537.096)" fill="#006bd6"/><g transform="translate(36.722 0)"><path d="M687.421,2569.721l-17.286-15.36a2.643,2.643,0,0,1-.219-3.72h0a2.642,2.642,0,0,1,3.72-.219l17.287,15.36a2.643,2.643,0,0,1,.219,3.72h0A2.643,2.643,0,0,1,687.421,2569.721Z" transform="translate(-669.253 -2536.917)" fill="#01357a"/><rect width="22.474" height="21.906" rx="7.597" transform="translate(19.16 0) rotate(41.623)" fill="#01357a"/><path d="M675.588,2552.283h0a2.817,2.817,0,0,1-2.248-3.275l1.295-6.962a2.817,2.817,0,0,1,3.275-2.248h0a2.818,2.818,0,0,1,2.248,3.275l-1.3,6.962A2.817,2.817,0,0,1,675.588,2552.283Z" transform="translate(-669.922 -2535.259)" fill="#01357a"/></g></g><g transform="translate(78.63 244.14)"><path d="M8.937,0H34.029a8.936,8.936,0,0,1,8.936,8.936v0a8.937,8.937,0,0,1-8.937,8.937H8.937A8.937,8.937,0,0,1,0,8.937v0A8.937,8.937,0,0,1,8.937,0Z" transform="translate(10.051 1.959) rotate(34.22)" fill="#006bd6"/><rect width="37.294" height="15.736" transform="translate(18.242 0) rotate(34.22)" fill="#006bd6"/></g><g transform="translate(159.098 212.879)"><path d="M8.937,0H34.029a8.937,8.937,0,0,1,8.937,8.937v0a8.937,8.937,0,0,1-8.937,8.937H8.937A8.937,8.937,0,0,1,0,8.937v0A8.937,8.937,0,0,1,8.937,0Z" transform="matrix(-0.297, 0.955, -0.955, -0.297, 35.76, 5.302)" fill="#006bd6"/><rect width="37.294" height="15.736" transform="matrix(-0.297, 0.955, -0.955, -0.297, 26.09, 8.237)" fill="#006bd6"/></g><g transform="translate(6.071 33.783)"><rect width="146.802" height="129.685" rx="64.842" transform="matrix(0.917, -0.398, 0.398, 0.917, 0, 82.467)" fill="#0075d6"/><g transform="translate(39.882)"><path d="M568.923,2435.751l-35.7,15.476a7.346,7.346,0,1,0,5.844,13.479l35.7-15.476a7.346,7.346,0,1,0-5.844-13.479Z" transform="translate(-525.958 -2397.742)" fill="#01357a"/><rect width="2.755" height="38.778" rx="0.629" transform="matrix(0.917, -0.398, 0.398, 0.917, 9.41, 12.985)" fill="#01357a"/><path d="M543.272,2395.935a9.323,9.323,0,1,1-12.263-4.846A9.323,9.323,0,0,1,543.272,2395.935Z" transform="translate(-525.392 -2390.317)" fill="#01357a"/></g><path d="M560.083,2474.5c21.14-9.166,44.587-3.514,56.768,12.374l11.277-4.889c-14.747-21.351-45.09-29.265-72.362-17.441s-42.234,39.383-36.729,64.741l11.277-4.889C527.041,2504.647,538.942,2483.668,560.083,2474.5Z" transform="translate(-484.27 -2401.702)" fill="#fff"/><path d="M596.454,2562.424c-21.14,9.166-44.588,3.513-56.768-12.375l-11.276,4.889c14.747,21.351,45.09,29.265,72.361,17.442S643,2533,637.5,2507.639l-11.277,4.889C629.495,2532.28,617.594,2553.258,596.454,2562.424Z" transform="translate(-486.009 -2409.75)" fill="#fff"/></g><g transform="translate(59.38 147.539)"><path d="M548.434,2527.457l-.8.339a10.14,10.14,0,0,0-5.348,13.261l3.584,8.432a10.029,10.029,0,0,0,3.615,4.381,42.54,42.54,0,0,1,14.8-2.947,10.117,10.117,0,0,0,1-9.685l-3.585-8.433A10.138,10.138,0,0,0,548.434,2527.457Z" transform="translate(-541.484 -2526.655)" fill="#fff"/><path d="M4.384,0h0A4.384,4.384,0,0,1,8.768,4.384v5.688a4.384,4.384,0,0,1-4.384,4.384h0A4.384,4.384,0,0,1,0,10.071V4.384A4.384,4.384,0,0,1,4.384,0Z" transform="translate(7.472 8.691) rotate(-23.031)"/><path d="M555.046,2536.181a2.192,2.192,0,1,1-2.875-1.16A2.192,2.192,0,0,1,555.046,2536.181Z" transform="translate(-543.033 -2528.012)" fill="#fff"/></g><g transform="translate(116.94 123.484)"><g transform="translate(0 0)"><path d="M616.554,2499l.8-.346a10.141,10.141,0,0,1,13.3,5.254l3.645,8.406a10.028,10.028,0,0,1,.687,5.638,42.529,42.529,0,0,0-12.327,8.7,10.118,10.118,0,0,1-7.71-5.947L611.3,2512.3A10.141,10.141,0,0,1,616.554,2499Z" transform="translate(-610.47 -2497.825)" fill="#fff"/></g><rect width="8.768" height="14.455" rx="4.384" transform="matrix(0.917, -0.398, 0.398, 0.917, 3.401, 10.475)"/><path d="M619.949,2509.107a2.192,2.192,0,1,0,1.14-2.883A2.193,2.193,0,0,0,619.949,2509.107Z" transform="translate(-612.01 -2499.187)" fill="#fff"/></g></g></g></svg>