<svg width="101" height="161" viewBox="0 0 101 161" fill="none" xmlns="http://www.w3.org/2000/svg">
<path d="M40.7953 56.6741L19.7933 26.5427C17.9654 23.9204 19.626 20.2993 22.8061 19.9739L96.5301 12.4292C99.2213 12.1539 100.695 15.4799 98.6838 17.2885L53.2818 58.1143C49.5325 61.4852 43.6782 60.81 40.7953 56.6741Z" fill="white"/>
<path opacity="0.2" d="M54.3753 53.9352L94.875 19.9131" stroke="#1CB0F6" stroke-width="6" stroke-linecap="round"/>
<path d="M40.7953 56.6741L19.7933 26.5427C17.9654 23.9204 19.626 20.2993 22.8061 19.9739L96.5301 12.4292C99.2213 12.1539 100.695 15.4799 98.6838 17.2885L53.2818 58.1143C49.5325 61.4852 43.6782 60.81 40.7953 56.6741Z" stroke="#1CB0F6" stroke-width="2" stroke-linecap="round" stroke-linejoin="round"/>
<path d="M25.471 48.3199L25.3618 34.6966L97.7447 13.1456C97.9774 13.0762 98.2301 13.133 98.4105 13.2951L99.2008 14.0038C99.2993 14.0924 99.2672 14.2545 99.1422 14.2986L28.4749 39.1794L25.471 48.3199Z" fill="white"/>
<path d="M25.471 48.3199L25.3618 34.6966L97.7447 13.1456C97.9774 13.0762 98.2301 13.133 98.4105 13.2951L99.2008 14.0038C99.2993 14.0924 99.2672 14.2545 99.1422 14.2986L28.4749 39.1794L25.471 48.3199Z" fill="#3C5D87" fill-opacity="0.2"/>
<path d="M25.471 48.3199L25.3618 34.6966L97.7447 13.1456C97.9774 13.0762 98.2301 13.133 98.4105 13.2951L99.2008 14.0038C99.2993 14.0924 99.2672 14.2545 99.1422 14.2986L28.4749 39.1794L25.471 48.3199Z" stroke="#1CB0F6" stroke-width="2" stroke-linecap="round" stroke-linejoin="round"/>
<path d="M34.2593 47.4702L27.2922 49.6166C26.2029 49.952 25.1915 48.9134 25.556 47.8338L28.4777 39.1789L34.2593 47.4702Z" fill="white"/>
<path d="M34.2593 47.4702L27.2922 49.6166C26.2029 49.952 25.1915 48.9134 25.556 47.8338L28.4777 39.1789L34.2593 47.4702Z" fill="#3C5D87" fill-opacity="0.15"/>
<path d="M34.2593 47.4702L27.2922 49.6166C26.2029 49.952 25.1915 48.9134 25.556 47.8338L28.4777 39.1789L34.2593 47.4702Z" stroke="#1CB0F6" stroke-width="2" stroke-linecap="round" stroke-linejoin="round"/>
<path opacity="0.2" d="M28.8366 43.0686L32.2982 47.5821" stroke="#1CB0F6" stroke-width="6" stroke-linecap="round"/>
<path opacity="0.2" d="M28.1897 38.4493L93.291 16.1147" stroke="#1CB0F6" stroke-width="4" stroke-linecap="round"/>
<path d="M21.6893 51.4623C12.7298 60.7507 3.17878 83.1928 36.6503 98.6544C78.4896 117.982 49.1311 156.164 10.1917 153.927" stroke="#84D8FF" stroke-width="1.5" stroke-linecap="round" stroke-dasharray="3 3"/>
</svg>
