<svg xmlns="http://www.w3.org/2000/svg" x="0px" y="9060px" width="34px" height="34px" viewBox="0 0 34 34"><g transform="translate(-429 -2049)"><g transform="translate(431 2051)"><g fill="#fff" stroke="#5ece00" stroke-linecap="square" stroke-width="2" opacity="0.67"><circle cx="15" cy="15" r="15" stroke="none"/><circle cx="15" cy="15" r="16" fill="none"/></g><g transform="translate(0.893 0.973)"><g transform="translate(1.109 1.032)"><path d="M291.311,29.832l-1.474.983-2.457-.491-1.474-.491-1.966.491-1.474-.491.983-1.966h1.966l1.927-.963A14.077,14.077,0,0,1,291.311,29.832Z" transform="translate(-267.849 -26.441)" fill="#fff"/><path d="M32.075,20.029,31.583,21.5,30.109,22l-1.474,2.457-2.457,1.474-3.44.491v1.474l.983.983v1.966l-1.474-.983-1.474-.983-.855-2.57a14.243,14.243,0,0,1,7.814-7.7l1.4.934Z" transform="translate(-19.916 -18.604)" fill="#fff"/><path d="M80.911,216.364l-.491,2.457-1.966,1.966v1.474l-1.966,1.474v2.457l-1.474-.491-.983-2.457V218.33l-2.457-.491-.983-1.966V214.4l.983-.983,1.474-1.474.983,1.966h3.44l1.474,2.457Z" transform="translate(-67.769 -201.178)" fill="#fff"/><path d="M285.09,115.729A14.238,14.238,0,0,1,284.3,130.9l-1.327-1.327v-1.966l-.983-1.966-.983-1.966V121.71l-1.474-.983-1.966.491-3.44-1.474-.491-3.44,1.474-1.474h2.949l.983,1.474,2.949.491,2.949-.983Z" transform="translate(-259.514 -109.473)" fill="#fff"/></g><path d="M17.2,4.981l1.966-.491,1.474.491,2.457.491,1.474-.983a14.035,14.035,0,0,1,2.113,2.865l-.147.084-2.949.983L20.639,7.93l-.983-1.474H16.708L15.233,7.93l.491,3.44,3.44,1.474,1.966-.491,1.474.983V15.3l.983,1.966.983,1.966V21.2L25.9,22.526A14.252,14.252,0,0,1,1.109,8.8l.855,2.57,1.474.983,1.474.983-.983.983v1.474l.983,1.966,2.457.491v4.915l.983,2.457,1.474.491V23.656l1.966-1.474V20.708l1.966-1.966.491-2.457H12.285L10.81,13.827H7.37l-.983-1.966L4.913,13.336V11.37l-.983-.983V8.913l3.44-.491L9.827,6.947,11.3,4.49,12.776,4l.491-1.474-2.949-.491L8.923,1.1A14.253,14.253,0,0,1,20.6,1.56l-1.927.963H16.708L15.725,4.49Z" transform="translate(0 -0.067)" fill="#5ece00"/></g></g></g></svg>