<svg  xmlns="http://www.w3.org/2000/svg"
 xmlns:xlink="http://www.w3.org/1999/xlink"
            x="0px"
            y="2920px"
            width="94px"
            height="53px"
            viewBox="0 0 94 53"
            enable-background="new 0 0 94 53"
            xml:space="preserve"
          >
            <g transform="translate(-425 -494)">
              <path
                fill="#00C5F9"
                d="M438,494h68c7.18,0,13,5.82,13,13v27c0,7.18-5.82,13-13,13h-68c-7.18,0-13-5.82-13-13v-27 C425,499.82,430.82,494,438,494z"
              />
              <g transform="translate(-24.236 474.039)">
                <path
                  fill="#FFFFFF"
                  d="M491.043,38.566c-0.69-3.401-4.006-5.598-7.407-4.908c-2.473,0.501-4.406,2.435-4.908,4.908h-3.183 c0.683-5.159,5.418-8.787,10.577-8.104c4.222,0.559,7.545,3.881,8.104,8.104H491.043z M480.695,40.098 c0.001-0.651,0.531-1.178,1.182-1.176c0.651,0.002,1.178,0.531,1.176,1.182c-0.001,0.65-0.529,1.176-1.18,1.176 C481.222,41.278,480.695,40.749,480.695,40.098L480.695,40.098z M486.457,40.098c0.002-0.651,0.531-1.176,1.182-1.174 c0.651,0.002,1.176,0.531,1.174,1.182c-0.002,0.649-0.529,1.174-1.178,1.174C486.984,41.278,486.457,40.749,486.457,40.098 L486.457,40.098z M475.583,41.368h3.206c0.833,3.367,4.239,5.421,7.606,4.588c2.262-0.56,4.028-2.326,4.588-4.588h3.2 c-0.834,5.136-5.675,8.623-10.811,7.788C479.37,48.506,476.233,45.37,475.583,41.368z"
                />
                <path
                  fill="#FFFFFF"
                  d="M505.257,46.146c-3.488,0-6.316-2.83-6.316-6.319s2.83-6.318,6.318-6.317c3,0,5.586,2.11,6.188,5.048h3.2 c-0.701-5.188-5.475-8.825-10.662-8.124s-8.824,5.475-8.123,10.662c0.701,5.188,5.475,8.824,10.662,8.123 c4.13-0.558,7.41-3.749,8.084-7.862h-3.225C510.681,44.17,508.156,46.144,505.257,46.146z"
                />
                <path
                  fill="#FFFFFF"
                  d="M501.03,40.098c0.001-0.651,0.53-1.178,1.183-1.176c0.65,0.002,1.178,0.531,1.176,1.182 c-0.002,0.65-0.529,1.176-1.18,1.176C501.556,41.279,501.029,40.75,501.03,40.098L501.03,40.098z M506.791,40.098 c0.002-0.651,0.531-1.178,1.182-1.176c0.652,0.002,1.178,0.531,1.177,1.182c-0.002,0.65-0.53,1.176-1.181,1.176 c-0.652,0-1.181-0.528-1.182-1.18c0-0.001,0-0.001,0-0.002H506.791z"
                />
                <path
                  fill="#FFFFFF"
                  d="M472.564,30.398h3.221l-6.651,18.961h-3.273l-6.625-18.961h3.2l3.958,11.786 c0.207,0.562,0.428,1.286,0.662,2.172c0.234,0.886,0.386,1.545,0.454,1.978c0.113-0.657,0.286-1.418,0.52-2.283 c0.234-0.864,0.424-1.504,0.571-1.919L472.564,30.398z"
                />
                <path
                  fill="#FFFFFF"
                  d="M526.222,41.4l-1.778-5.162c-0.134-0.346-0.313-0.89-0.54-1.633s-0.385-1.288-0.475-1.635 c-0.268,1.184-0.61,2.349-1.025,3.489l-1.713,4.941H526.222z M528.938,49.338l-1.899-5.266h-7.262l-1.854,5.269h-3.274 l7.101-19.039h3.377l7.104,19.039L528.938,49.338z"
                />
              </g>
              <g enable-background="new ">
                <path
                  fill="#FFFFFF"
                  d="M436.65,529.01h1.02v6.141h3.54V536h-4.56V529.01z"
                />
                <path
                  fill="#FFFFFF"
                  d="M442.265,535.485c-0.503-0.443-0.755-1.068-0.755-1.875c0-0.787,0.225-1.41,0.675-1.87 s1.092-0.69,1.925-0.69c0.554,0,1.023,0.105,1.41,0.315s0.678,0.5,0.875,0.87s0.295,0.791,0.295,1.265v0.5h-4.22 c0.033,0.453,0.225,0.792,0.575,1.015c0.35,0.224,0.825,0.335,1.425,0.335c0.307,0,0.616-0.028,0.93-0.085s0.59-0.131,0.83-0.225 v0.81c-0.213,0.087-0.495,0.158-0.845,0.216c-0.35,0.056-0.695,0.085-1.035,0.085C443.463,536.15,442.769,535.929,442.265,535.485 z M445.74,533.29c-0.014-0.453-0.162-0.805-0.445-1.055s-0.685-0.375-1.205-0.375c-0.506,0-0.9,0.13-1.18,0.39 c-0.28,0.26-0.427,0.606-0.44,1.04H445.74z"
                />
                <path
                  fill="#FFFFFF"
                  d="M448.115,535.705c-0.35-0.297-0.525-0.698-0.525-1.205c0-0.533,0.168-0.945,0.505-1.235 c0.336-0.29,0.815-0.435,1.435-0.435c0.66,0,1.22,0.134,1.68,0.4v-0.25c0-0.381-0.115-0.662-0.345-0.846 c-0.23-0.183-0.592-0.274-1.085-0.274c-0.293,0-0.579,0.028-0.855,0.085c-0.277,0.057-0.525,0.135-0.745,0.234v-0.819 c0.2-0.094,0.46-0.169,0.78-0.226c0.32-0.057,0.63-0.085,0.93-0.085c0.793,0,1.381,0.175,1.765,0.525 c0.383,0.35,0.575,0.835,0.575,1.455V536h-0.95v-0.54c-0.207,0.227-0.452,0.398-0.735,0.515c-0.283,0.117-0.628,0.176-1.035,0.176 C448.93,536.15,448.465,536.002,448.115,535.705z M450.63,535.19c0.26-0.127,0.453-0.304,0.58-0.53v-0.65 c-0.433-0.279-0.917-0.42-1.45-0.42c-0.387,0-0.675,0.075-0.865,0.226c-0.19,0.149-0.285,0.378-0.285,0.685 c0,0.587,0.383,0.88,1.15,0.88C450.08,535.38,450.37,535.316,450.63,535.19z"
                />
                <path
                  fill="#FFFFFF"
                  d="M453.479,531.2h0.98v0.859c0.2-0.293,0.481-0.51,0.845-0.649c0.363-0.141,0.785-0.21,1.265-0.21v0.79 c-0.514,0-0.954,0.083-1.32,0.25c-0.367,0.166-0.62,0.43-0.76,0.79V536h-1.01V531.2z"
                />
                <path
                  fill="#FFFFFF"
                  d="M457.469,531.2h0.98v0.689c0.227-0.286,0.505-0.498,0.835-0.635s0.675-0.205,1.035-0.205 c0.64,0,1.117,0.17,1.43,0.51c0.313,0.341,0.47,0.797,0.47,1.37V536h-1.01v-2.97c0-0.78-0.374-1.17-1.12-1.17 c-0.32,0-0.619,0.074-0.895,0.225c-0.277,0.15-0.515,0.379-0.715,0.685V536h-1.01V531.2z"
                />
                <path
                  fill="#FFFFFF"
                  d="M467.169,529.01h3.21c0.62,0,1.1,0.16,1.44,0.48c0.34,0.319,0.51,0.786,0.51,1.399 c0,0.347-0.082,0.652-0.245,0.915c-0.164,0.264-0.378,0.459-0.645,0.585c0.747,0.221,1.12,0.764,1.12,1.63 c0,0.407-0.088,0.759-0.265,1.056s-0.418,0.524-0.725,0.685s-0.646,0.24-1.02,0.24h-3.38V529.01z M470.25,532.01 c0.327,0,0.583-0.09,0.77-0.27c0.187-0.181,0.28-0.447,0.28-0.8c0-0.407-0.091-0.692-0.275-0.855 c-0.183-0.163-0.465-0.245-0.845-0.245h-1.99v2.17H470.25z M470.319,535.17c0.394,0,0.693-0.087,0.9-0.26 c0.207-0.174,0.31-0.47,0.31-0.891c0-0.42-0.108-0.72-0.325-0.899c-0.217-0.18-0.542-0.271-0.975-0.271h-2.04v2.32H470.319z"
                />
                <path
                  fill="#FFFFFF"
                  d="M473.329,537.87v-0.79c0.173,0.066,0.387,0.1,0.64,0.1c0.233,0,0.417-0.059,0.551-0.175 c0.133-0.116,0.253-0.305,0.359-0.564l0.23-0.561l-2.1-4.68h1.039l1.6,3.689l1.49-3.689h1.041l-2.16,5.34 c-0.201,0.5-0.439,0.865-0.715,1.095c-0.277,0.23-0.636,0.346-1.076,0.346C473.869,537.98,473.568,537.943,473.329,537.87z"
                />
                <path
                  fill="#FFFFFF"
                  d="M482.779,529.01h1.02v3h3.65v-3h1.02V536h-1.02v-3.13h-3.65V536h-1.02V529.01z"
                />
                <path
                  fill="#FFFFFF"
                  d="M490.324,535.485c-0.504-0.443-0.755-1.068-0.755-1.875c0-0.787,0.225-1.41,0.675-1.87 s1.092-0.69,1.925-0.69c0.554,0,1.023,0.105,1.41,0.315s0.679,0.5,0.875,0.87s0.295,0.791,0.295,1.265v0.5h-4.22 c0.033,0.453,0.225,0.792,0.574,1.015c0.351,0.224,0.826,0.335,1.426,0.335c0.307,0,0.616-0.028,0.93-0.085s0.59-0.131,0.83-0.225 v0.81c-0.213,0.087-0.495,0.158-0.845,0.216c-0.351,0.056-0.695,0.085-1.035,0.085 C491.522,536.15,490.828,535.929,490.324,535.485z M493.799,533.29c-0.014-0.453-0.162-0.805-0.445-1.055 s-0.685-0.375-1.205-0.375c-0.506,0-0.899,0.13-1.18,0.39c-0.279,0.26-0.426,0.606-0.439,1.04H493.799z"
                />
                <path
                  fill="#FFFFFF"
                  d="M496.174,535.705c-0.35-0.297-0.525-0.698-0.525-1.205c0-0.533,0.168-0.945,0.506-1.235 c0.336-0.29,0.814-0.435,1.435-0.435c0.659,0,1.22,0.134,1.68,0.4v-0.25c0-0.381-0.114-0.662-0.345-0.846 c-0.23-0.183-0.592-0.274-1.085-0.274c-0.294,0-0.579,0.028-0.854,0.085c-0.277,0.057-0.525,0.135-0.746,0.234v-0.819 c0.201-0.094,0.461-0.169,0.78-0.226c0.32-0.057,0.63-0.085,0.931-0.085c0.793,0,1.381,0.175,1.765,0.525 c0.384,0.35,0.575,0.835,0.575,1.455V536h-0.95v-0.54c-0.207,0.227-0.452,0.398-0.735,0.515c-0.283,0.117-0.629,0.176-1.035,0.176 C496.988,536.15,496.523,536.002,496.174,535.705z M498.689,535.19c0.26-0.127,0.453-0.304,0.579-0.53v-0.65 c-0.433-0.279-0.917-0.42-1.45-0.42c-0.387,0-0.675,0.075-0.865,0.226c-0.189,0.149-0.284,0.378-0.284,0.685 c0,0.587,0.384,0.88,1.149,0.88C498.139,535.38,498.429,535.316,498.689,535.19z"
                />
                <path
                  fill="#FFFFFF"
                  d="M501.539,531.2h0.979v0.859c0.2-0.293,0.481-0.51,0.845-0.649c0.363-0.141,0.785-0.21,1.266-0.21v0.79 c-0.514,0-0.953,0.083-1.32,0.25c-0.367,0.166-0.62,0.43-0.76,0.79V536h-1.01V531.2z"
                />
                <path
                  fill="#FFFFFF"
                  d="M506.254,535.73c-0.264-0.28-0.396-0.677-0.396-1.19v-2.56h-0.729v-0.78h0.729v-1.44h1.021v1.44h1.18v0.78 h-1.18v2.489c0,0.32,0.061,0.547,0.185,0.681c0.123,0.133,0.349,0.199,0.675,0.199c0.193,0,0.387-0.043,0.58-0.13v0.8 c-0.254,0.087-0.566,0.131-0.939,0.131C506.892,536.15,506.517,536.01,506.254,535.73z"
                />
              </g>
            </g>
          </svg>