<svg xmlns="http://www.w3.org/2000/svg" xmlns:xlink="http://www.w3.org/1999/xlink" width="213.093" height="44.473" viewBox="0 0 213.093 44.473"><defs><clipPath id="a"><rect width="170.234" height="40.472" rx="12" transform="translate(-10)" fill="#fff"/></clipPath></defs><g transform="translate(1574 -12570.973)"><g transform="translate(-1945.642 12256.648)"><rect width="213.093" height="44.473" rx="13" transform="translate(371.642 314.324)" fill="#1453a3"/><rect width="209.093" height="40.473" rx="12" transform="translate(371.642 314.324)" fill="#0064d6"/><g transform="translate(420.5 314.324)" opacity="0.17" clip-path="url(#a)"><path d="M13664.48-5466.188l-34.98,44.174h44.949l38.365-45.735Z" transform="translate(-13628.748 5464.16)" fill="#fff"/><path d="M13664.48-5466.188l-34.98,44.174h44.949l38.365-45.735Z" transform="translate(-13542.988 5464.16)" fill="#fff"/></g><path d="M6.665,9.3l1.95-.03q.06.615.09,1.245t.038,1.222q.008.592.007,1.162v3.09q-.135.03-.413.075a3.416,3.416,0,0,1-.547.045,1.35,1.35,0,0,1-.87-.217.953.953,0,0,1-.255-.757Zm7.89,4.275-1.935.03q-.12-1.125-.127-2.153t-.007-1.973V6.88q.135-.03.4-.075a3.371,3.371,0,0,1,.555-.045,1.321,1.321,0,0,1,.855.217.953.953,0,0,1,.255.758Zm0-.69v2.85a1.356,1.356,0,0,1-.51.27,2.641,2.641,0,0,1-.8.1,2.481,2.481,0,0,1-.892-.157,1.384,1.384,0,0,1-.7-.7L9.71,11.62q-.18-.345-.352-.7t-.33-.7L8.72,9.55l-2.055.465V7.27A1.118,1.118,0,0,1,7.2,6.9a2.32,2.32,0,0,1,.78-.127,2.439,2.439,0,0,1,.9.165,1.355,1.355,0,0,1,.69.7l1.965,3.63q.18.33.352.682t.337.705q.165.352.3.682ZM20.39,4.9q-.315.315-.675.66t-.72.66a1.064,1.064,0,0,1-.66-.24.7.7,0,0,1-.27-.555.767.767,0,0,1,.142-.465,2.979,2.979,0,0,1,.458-.465l.585-.51a1.986,1.986,0,0,1,1.17-.525,1.388,1.388,0,0,1,.6.127,1.927,1.927,0,0,1,.555.427L22.79,5.29a.877.877,0,0,1-.233.66.857.857,0,0,1-.622.225.789.789,0,0,1-.472-.158,3.8,3.8,0,0,1-.532-.5Zm-.03,3.78h-.09q-.165.5-.375,1.118t-.442,1.3q-.233.675-.427,1.32l-.255,1.2q-.09.285-.18.615t-.187.645q-.1.315-.18.608T18.08,16a3.084,3.084,0,0,1-.36.1,2.174,2.174,0,0,1-.48.045,1.543,1.543,0,0,1-.885-.217.711.711,0,0,1-.315-.623,1.2,1.2,0,0,1,.06-.367q.06-.187.12-.428.15-.495.4-1.245t.548-1.627q.3-.878.608-1.74t.577-1.6q.27-.735.45-1.185a2.771,2.771,0,0,1,.638-.233,3.319,3.319,0,0,1,.847-.113,3.178,3.178,0,0,1,1.08.173.882.882,0,0,1,.6.562q.3.8.645,1.852t.7,2.2q.36,1.14.683,2.22t.578,1.95a1.051,1.051,0,0,1-.45.292,1.958,1.958,0,0,1-.69.113,1.294,1.294,0,0,1-.825-.2,1.241,1.241,0,0,1-.36-.637l-.54-1.785-.225-1.17q-.21-.69-.42-1.365t-.39-1.268Q20.495,9.115,20.36,8.68Zm-2.52,5.25.81-1.68h3.6l.285,1.68ZM25.985,9.3l1.95-.03q.06.615.09,1.245t.038,1.222q.007.592.007,1.162v3.09q-.135.03-.413.075a3.416,3.416,0,0,1-.548.045,1.35,1.35,0,0,1-.87-.217.953.953,0,0,1-.255-.757Zm7.89,4.275-1.935.03q-.12-1.125-.127-2.153t-.007-1.973V6.88q.135-.03.4-.075a3.371,3.371,0,0,1,.555-.045,1.321,1.321,0,0,1,.855.217.953.953,0,0,1,.255.758Zm0-.69v2.85a1.356,1.356,0,0,1-.51.27,2.641,2.641,0,0,1-.795.1,2.481,2.481,0,0,1-.892-.157,1.384,1.384,0,0,1-.7-.7l-1.95-3.63q-.18-.345-.352-.7t-.33-.7L28.04,9.55l-2.055.465V7.27a1.118,1.118,0,0,1,.54-.368,2.32,2.32,0,0,1,.78-.127,2.439,2.439,0,0,1,.9.165,1.355,1.355,0,0,1,.69.7l1.965,3.63q.18.33.352.682t.337.705q.165.352.3.682Zm10.1-1.35v3.15a.98.98,0,0,1-.165.615,1.713,1.713,0,0,1-.51.4,4.244,4.244,0,0,1-1.155.383,7.281,7.281,0,0,1-1.5.157,6.432,6.432,0,0,1-2.572-.495,3.894,3.894,0,0,1-1.807-1.56,5.079,5.079,0,0,1-.66-2.715,4.907,4.907,0,0,1,.675-2.663,4.318,4.318,0,0,1,1.807-1.62,5.662,5.662,0,0,1,2.5-.547,5.844,5.844,0,0,1,1.6.2,2.583,2.583,0,0,1,1.05.533,1.01,1.01,0,0,1,.368.757.991.991,0,0,1-.165.563,1.234,1.234,0,0,1-.39.382,5.863,5.863,0,0,0-.952-.458,3.722,3.722,0,0,0-1.342-.217,3.062,3.062,0,0,0-1.515.368,2.616,2.616,0,0,0-1.035,1.05,3.364,3.364,0,0,0-.375,1.642,3.55,3.55,0,0,0,.368,1.71A2.365,2.365,0,0,0,39.2,14.17a3.182,3.182,0,0,0,1.47.33,3.222,3.222,0,0,0,.727-.075,3.322,3.322,0,0,0,.5-.15v-1.89H40.07a1.854,1.854,0,0,1-.142-.36,1.609,1.609,0,0,1-.068-.465.9.9,0,0,1,.2-.653.74.74,0,0,1,.548-.2h2.52a.848.848,0,0,1,.615.217A.806.806,0,0,1,43.97,11.53ZM56.39,8.11a.96.96,0,0,1-.173.563,1.308,1.308,0,0,1-.4.382,5.02,5.02,0,0,0-.847-.457,2.909,2.909,0,0,0-1.147-.2,2.723,2.723,0,0,0-1.417.352,2.363,2.363,0,0,0-.923,1.035,3.821,3.821,0,0,0-.33,1.673,3.137,3.137,0,0,0,.75,2.273,2.692,2.692,0,0,0,2.025.773,3.177,3.177,0,0,0,1.155-.187,4.87,4.87,0,0,0,.855-.427,1.152,1.152,0,0,1,.368.4,1.179,1.179,0,0,1,.143.585.946.946,0,0,1-.15.51,1.239,1.239,0,0,1-.495.42,4.568,4.568,0,0,1-.833.292,5.158,5.158,0,0,1-1.312.142,5.434,5.434,0,0,1-2.393-.517,3.946,3.946,0,0,1-1.7-1.575,5.2,5.2,0,0,1-.63-2.693,5.167,5.167,0,0,1,.622-2.632A4.153,4.153,0,0,1,51.23,7.195a4.866,4.866,0,0,1,2.31-.555,5.058,5.058,0,0,1,1.522.2,2.5,2.5,0,0,1,.983.532A1,1,0,0,1,56.39,8.11Zm7.59-4.92,1.065-1.335a1.175,1.175,0,0,1,.772.24.675.675,0,0,1,.247.51.738.738,0,0,1-.112.413,3.167,3.167,0,0,1-.338.412l-.96.99a1.023,1.023,0,0,1-.668-.2.585.585,0,0,1-.247-.457.683.683,0,0,1,.052-.262A1.488,1.488,0,0,1,63.98,3.19ZM61.925,8.68h-.09q-.165.5-.375,1.118t-.443,1.3q-.232.675-.427,1.32l-.255,1.2q-.09.285-.18.615t-.187.645q-.1.315-.18.608T59.645,16a3.084,3.084,0,0,1-.36.1,2.174,2.174,0,0,1-.48.045,1.544,1.544,0,0,1-.885-.217.711.711,0,0,1-.315-.623,1.2,1.2,0,0,1,.06-.367q.06-.187.12-.428.15-.495.4-1.245t.548-1.627q.3-.878.607-1.74t.578-1.6q.27-.735.45-1.185A2.771,2.771,0,0,1,61,6.887a3.32,3.32,0,0,1,.847-.113,3.178,3.178,0,0,1,1.08.173.882.882,0,0,1,.6.562q.3.8.645,1.852t.705,2.2q.36,1.14.683,2.22t.577,1.95a1.051,1.051,0,0,1-.45.292,1.958,1.958,0,0,1-.69.113,1.294,1.294,0,0,1-.825-.2,1.241,1.241,0,0,1-.36-.637l-.54-1.785-.225-1.17q-.21-.69-.42-1.365t-.39-1.268Q62.06,9.115,61.925,8.68ZM59.4,13.93l.81-1.68h3.6l.285,1.68ZM61.955,5q-.315.3-.675.653t-.72.653a1,1,0,0,1-.66-.225.7.7,0,0,1-.27-.555.767.767,0,0,1,.142-.465A2.979,2.979,0,0,1,60.23,4.6l.585-.525a2.015,2.015,0,0,1,1.17-.51,1.388,1.388,0,0,1,.6.128,2.038,2.038,0,0,1,.555.412l1.215,1.29a.882.882,0,0,1-.232.653.841.841,0,0,1-.623.233.766.766,0,0,1-.472-.165,4.782,4.782,0,0,1-.533-.495Zm7.74,6.33h.96a2.04,2.04,0,0,0,1.29-.375,1.306,1.306,0,0,0,.48-1.095,1.318,1.318,0,0,0-.45-1.1,2.022,2.022,0,0,0-1.29-.36q-.3,0-.54.015a3.06,3.06,0,0,0-.45.06Zm1.1,1.7H67.55V7.69a.583.583,0,0,1,.165-.443,1.309,1.309,0,0,1,.435-.262,5.432,5.432,0,0,1,1.155-.24A11.334,11.334,0,0,1,70.55,6.67a4.592,4.592,0,0,1,3.03.863A2.879,2.879,0,0,1,74.6,9.85a3.065,3.065,0,0,1-.45,1.673,2.989,2.989,0,0,1-1.3,1.11A4.833,4.833,0,0,1,70.79,13.03Zm-3.24-.945h2.16v3.9q-.15.03-.427.075a3.6,3.6,0,0,1-.577.045,1.346,1.346,0,0,1-.893-.232.987.987,0,0,1-.262-.773Zm14.295-.75h.96a2.04,2.04,0,0,0,1.29-.375,1.306,1.306,0,0,0,.48-1.095,1.318,1.318,0,0,0-.45-1.1,2.022,2.022,0,0,0-1.29-.36q-.3,0-.54.015a3.06,3.06,0,0,0-.45.06Zm1.1,1.7H79.7V7.69a.583.583,0,0,1,.165-.443,1.309,1.309,0,0,1,.435-.262,5.432,5.432,0,0,1,1.155-.24A11.334,11.334,0,0,1,82.7,6.67a4.592,4.592,0,0,1,3.03.863A2.879,2.879,0,0,1,86.75,9.85a3.065,3.065,0,0,1-.45,1.673,2.989,2.989,0,0,1-1.3,1.11A4.833,4.833,0,0,1,82.94,13.03Zm-3.24-.945h2.16v3.9q-.15.03-.427.075a3.6,3.6,0,0,1-.577.045,1.346,1.346,0,0,1-.893-.232A.987.987,0,0,1,79.7,15.1Zm10.77-.855h1.08a2.074,2.074,0,0,0,1.275-.36,1.231,1.231,0,0,0,.48-1.05,1.243,1.243,0,0,0-.465-1.057,2.324,2.324,0,0,0-1.41-.352q-.27,0-.51.022a3.877,3.877,0,0,0-.45.068Zm1.26,1.65H88.34V7.69a.583.583,0,0,1,.165-.443,1.309,1.309,0,0,1,.435-.262,5.413,5.413,0,0,1,1.14-.24,12.226,12.226,0,0,1,1.38-.075,4.62,4.62,0,0,1,3.008.84A2.807,2.807,0,0,1,95.48,9.79,2.775,2.775,0,0,1,95,11.4a3.193,3.193,0,0,1-1.32,1.087A4.586,4.586,0,0,1,91.73,12.88Zm-.36-.51,1.875-.465q.36.465.743.945t.728.93q.345.45.63.825a6.745,6.745,0,0,1,.435.63,1.219,1.219,0,0,1-1.17.9,1.225,1.225,0,0,1-.795-.233,2.448,2.448,0,0,1-.525-.623Zm-3.03-.27H90.5v3.885q-.15.03-.427.075a3.6,3.6,0,0,1-.577.045,1.346,1.346,0,0,1-.893-.232.987.987,0,0,1-.262-.773Zm9.03-2.34h2.1V15.9a2.885,2.885,0,0,1-.4.09,3.331,3.331,0,0,1-.562.045,1.11,1.11,0,0,1-.833-.315,1.131,1.131,0,0,1-.307-.825Zm2.1,3.375h-2.1V8.05a1.145,1.145,0,0,1,.307-.847,1.125,1.125,0,0,1,.833-.307,3.33,3.33,0,0,1,.563.045,2.885,2.885,0,0,1,.4.09Zm-.96-.93V10.51h4.53a1.391,1.391,0,0,1,.158.345,1.568,1.568,0,0,1,.067.48.951.951,0,0,1-.195.653.707.707,0,0,1-.555.218Zm0,3.825V14.32h5.04a1.465,1.465,0,0,1,.143.345,1.717,1.717,0,0,1,.067.495.951.951,0,0,1-.195.653.707.707,0,0,1-.555.218Zm0-7.425V6.895h4.965a1.391,1.391,0,0,1,.158.345,1.567,1.567,0,0,1,.068.48.976.976,0,0,1-.195.667.707.707,0,0,1-.555.218Zm12.96,5.115a1.621,1.621,0,0,1-.427.21,1.821,1.821,0,0,1-.592.09,2.1,2.1,0,0,1-.735-.113.607.607,0,0,1-.39-.382q-.555-1.455-.93-2.467t-.6-1.717h-.075q-.045.96-.075,1.77t-.052,1.567q-.022.758-.06,1.552t-.082,1.725a2.557,2.557,0,0,1-.42.1,3.016,3.016,0,0,1-.525.045,1.544,1.544,0,0,1-.833-.188.683.683,0,0,1-.292-.622q0-.315.037-.967t.09-1.515q.052-.862.112-1.823t.128-1.9q.067-.937.112-1.733a1.5,1.5,0,0,1,.465-.33,2.024,2.024,0,0,1,.93-.18,2.139,2.139,0,0,1,1.027.21,1.186,1.186,0,0,1,.548.66q.255.585.525,1.32t.54,1.485q.27.75.5,1.365h.075q.45-1.365.915-2.655t.81-2.145a1.954,1.954,0,0,1,.5-.172,3.038,3.038,0,0,1,.652-.068,2.264,2.264,0,0,1,.975.18.754.754,0,0,1,.45.525q.06.285.128.9t.142,1.425q.075.81.15,1.7t.135,1.717q.06.833.113,1.508t.067,1.065a2.07,2.07,0,0,1-.457.18,2.353,2.353,0,0,1-.577.06,1.678,1.678,0,0,1-.773-.165.709.709,0,0,1-.353-.645q-.06-1.215-.112-2.318t-.083-2.025q-.03-.922-.06-1.567h-.075q-.21.675-.592,1.7T111.47,13.72Zm5.97-3.945h2.145v6.21q-.135.03-.42.075a3.746,3.746,0,0,1-.585.045,1.318,1.318,0,0,1-.878-.232.987.987,0,0,1-.262-.773Zm2.145,2.625H117.44V6.895q.135-.03.42-.082a3.14,3.14,0,0,1,.57-.053,1.424,1.424,0,0,1,.878.217.971.971,0,0,1,.277.8Zm6.03,3.84a4.617,4.617,0,0,1-2.085-.435,3.075,3.075,0,0,1-1.327-1.23,3.633,3.633,0,0,1-.457-1.845V11.71h2.145v.96a1.809,1.809,0,0,0,.488,1.35,1.691,1.691,0,0,0,1.237.48,1.716,1.716,0,0,0,1.245-.48,1.793,1.793,0,0,0,.5-1.35v-.96H129.5v1.02a3.587,3.587,0,0,1-.465,1.845,3.132,3.132,0,0,1-1.327,1.23A4.606,4.606,0,0,1,125.615,16.24Zm-1.725-4.05h-2.145v-5.3q.135-.03.427-.082a3.184,3.184,0,0,1,.563-.053,1.419,1.419,0,0,1,.885.217.987.987,0,0,1,.27.8Zm5.61.015h-2.145V6.895q.135-.03.42-.082a3.14,3.14,0,0,1,.57-.053,1.419,1.419,0,0,1,.885.217.987.987,0,0,1,.27.8Zm8.07,1.515a1.621,1.621,0,0,1-.428.21,1.821,1.821,0,0,1-.592.09,2.1,2.1,0,0,1-.735-.113.607.607,0,0,1-.39-.382q-.555-1.455-.93-2.467t-.6-1.717h-.075q-.045.96-.075,1.77t-.052,1.567q-.022.758-.06,1.552t-.083,1.725a2.557,2.557,0,0,1-.42.1,3.016,3.016,0,0,1-.525.045,1.544,1.544,0,0,1-.832-.188.683.683,0,0,1-.293-.622q0-.315.038-.967t.09-1.515q.053-.862.113-1.823t.128-1.9q.067-.937.113-1.733a1.5,1.5,0,0,1,.465-.33,2.024,2.024,0,0,1,.93-.18,2.14,2.14,0,0,1,1.028.21,1.186,1.186,0,0,1,.548.66q.255.585.525,1.32t.54,1.485q.27.75.5,1.365h.075q.45-1.365.915-2.655t.81-2.145a1.954,1.954,0,0,1,.5-.172,3.038,3.038,0,0,1,.653-.068,2.263,2.263,0,0,1,.975.18.754.754,0,0,1,.45.525q.06.285.128.9t.143,1.425q.075.81.15,1.7t.135,1.717q.06.833.113,1.508t.068,1.065a2.07,2.07,0,0,1-.458.18,2.353,2.353,0,0,1-.577.06,1.678,1.678,0,0,1-.773-.165.709.709,0,0,1-.352-.645q-.06-1.215-.113-2.318t-.083-2.025q-.03-.922-.06-1.567h-.075q-.21.675-.592,1.7T137.57,13.72Z" transform="translate(421.5 323.82)" fill="#fff"/></g><g transform="translate(3947.197 -30)"><g transform="translate(-5515 12603.227)"><path d="M111.015,70.037l1.534,4.671a.929.929,0,0,1,.046.169.389.389,0,0,1,0,.113.928.928,0,0,1-.046.169l-1.534,4.672a.457.457,0,0,1-.868,0l-1.534-4.672a.889.889,0,0,1-.046-.169.389.389,0,0,1,0-.113.882.882,0,0,1,.046-.169l1.534-4.672a.457.457,0,0,1,.868,0Z" transform="translate(-73.014 -43.773)" fill="#fff" fill-rule="evenodd"/><path d="M73.368,61.021l-3.78,1.242a.457.457,0,0,1-.285,0l-3.78-1.242a.457.457,0,0,1,0-.868l3.78-1.241a.457.457,0,0,1,.285,0l3.78,1.241a.457.457,0,0,1,0,.868ZM34.489,43.627l.732,2.228a.939.939,0,0,1,.046.169.392.392,0,0,1,0,.113.923.923,0,0,1-.046.169l-.732,2.229a.457.457,0,0,1-.868,0l-.732-2.229a.923.923,0,0,1-.046-.169.392.392,0,0,1,0-.113.929.929,0,0,1,.046-.169l.731-2.23a.457.457,0,0,1,.868,0Z" transform="translate(-31.879 -29.426)" fill="#fff" fill-rule="evenodd"/><path d="M34.775,30l-1.72.565a.457.457,0,0,1-.285,0L31.05,30a.457.457,0,0,1,0-.868l1.72-.565a.457.457,0,0,1,.285,0l1.72.565a.457.457,0,0,1,0,.868Zm24.5-16.776.542,1.65a.929.929,0,0,1,.046.169.392.392,0,0,1,0,.113.923.923,0,0,1-.046.169l-.542,1.65a.457.457,0,0,1-.868,0l-.542-1.65a.924.924,0,0,1-.046-.169.392.392,0,0,1,0-.113.872.872,0,0,1,.046-.169l.542-1.651a.457.457,0,0,1,.868,0Z" transform="translate(-30.736 -12.911)" fill="#fff" fill-rule="evenodd"/><path d="M91.631,17.114l-1.232.4a.457.457,0,0,1-.285,0l-1.232-.4a.457.457,0,0,1,0-.868l1.232-.4a.457.457,0,0,1,.285,0l1.232.4a.457.457,0,0,1,0,.868Z" transform="translate(-62.152 -14.491)" fill="#fff" fill-rule="evenodd"/></g><g transform="translate(-5510.646 12608.438)"><path d="M8.418,25.587a2.861,2.861,0,0,1-2.762-2.112L1.947,9.8A3.013,3.013,0,1,1,6.019,6.777q.058.039.115.08l3.15,2.335h0L13.83,4.428a3.047,3.047,0,1,1,5.536-.218l5.08,4.978L27.073,7.1q0-.058,0-.116a3.013,3.013,0,1,1,4.25,2.748L27.589,23.475a2.861,2.861,0,0,1-2.761,2.112Z" transform="translate(0 0)" fill="#ffc800"/><path d="M24.829,26.587H8.418v-2H24.829a1.864,1.864,0,0,0,1.8-1.374l3.855-14.2.43-.194a2.013,2.013,0,1,0-2.839-1.837q0,.039,0,.078l.019.505L24.377,10.52,18.185,4.452l.257-.624a2.048,2.048,0,1,0-3.721.146l.321.631-5.33,5.587H8.954L8.688,10,5.538,7.661,5.466,7.61l-.411-.273-.033-.492A2.013,2.013,0,1,0,2.3,8.867l.477.181L6.621,23.213a1.865,1.865,0,0,0,1.8,1.374v2a3.869,3.869,0,0,1-3.726-2.851L1.1,10.513A4.013,4.013,0,0,1,3.013,2.971,4.026,4.026,0,0,1,6.953,6.22L9.17,7.863l3.5-3.666A4.047,4.047,0,1,1,20.5,3.922l4.014,3.933L26.088,6.6a4.013,4.013,0,1,1,6.084,3.806L28.555,23.737A3.868,3.868,0,0,1,24.829,26.587Z" transform="translate(0 0)" fill="#fff"/><path d="M6.187,9.063l1.123.963a.92.92,0,0,0,1.3-.1l2.776-3.282a1.165,1.165,0,0,1,2.052.66l.956,12.044A1.165,1.165,0,0,1,13.233,20.6H8.655a1.165,1.165,0,0,1-1.127-.873l-2.563-9.9a.755.755,0,0,1,1.222-.761Z" transform="translate(1.468 2.182)" fill="#ffde00"/><path d="M32.58,25.419a4.007,4.007,0,0,1,2.062-2.442l1.616-.8A.891.891,0,0,1,37.5,23.244L34.09,34.027a.891.891,0,0,1-.849.622H31.012a.891.891,0,0,1-.853-1.146Z" transform="translate(-8.589 -11.822)" fill="#ffde00"/></g></g></g></svg>