<svg xmlns="http://www.w3.org/2000/svg" x="0px" y="4430px" width="30px" height="26px" viewBox="0 0 30 26" fill="none"><rect x="5.72656" y="11.7871" width="6.26731" height="7.22077" rx="1.75" stroke="#EF4849" stroke-width="1.5" stroke-linejoin="round"/><path d="M7.08303 25.6143C5.59444 25.7539 4.25601 24.7232 4.10771 23.3228L3.27907 15.4874C3.13077 14.0871 4.22635 12.8279 5.71494 12.6884C7.20352 12.5489 8.54195 13.5796 8.69026 14.9799L9.5189 22.8154C9.6672 24.2157 8.57161 25.4748 7.08303 25.6143Z" fill="#EF4849"/><path d="M7.86009 15.183H3.24648C1.87845 15.183 0.757812 14.0148 0.757812 12.5888V7.75046C0.757812 6.32271 1.87845 5.15625 3.24648 5.15625H7.86009V15.183Z" fill="#FF4B4B"/><path d="M7.85938 5.13323L18.3039 1.81348V18.5247L7.85938 15.1385V5.13323Z" fill="#FFC6B7"/><path d="M20.3934 20.6139C19.016 20.6139 17.8867 19.4662 17.8867 18.0626V2.69387C17.8884 1.29022 19.016 0.142578 20.3934 0.142578C21.7725 0.142578 22.9001 1.29022 22.9001 2.69387V18.0643C22.9001 19.4662 21.7725 20.6139 20.3934 20.6139Z" fill="#FF4B4B"/><path d="M28.8545 11.0043H25.7176C25.3177 11.0043 24.9883 10.7227 24.9883 10.3776C24.9883 10.034 25.3161 9.75098 25.7176 9.75098H28.8545C29.2545 9.75098 29.5839 10.0326 29.5839 10.3776C29.5839 10.7227 29.2561 11.0043 28.8545 11.0043Z" fill="#FF4B4B"/><path d="M29.1883 6.00991L26.0434 7.98337C25.6873 8.20649 25.2483 8.03146 25.067 7.59291C24.8858 7.15436 25.028 6.61387 25.3842 6.39075L28.529 4.41728C28.8852 4.19416 29.3242 4.3692 29.5054 4.80774C29.6866 5.24629 29.5429 5.78678 29.1883 6.00991Z" fill="#FF4B4B"/><path d="M25.4201 14.4079L28.8506 15.9428C29.2392 16.1163 29.7181 15.9802 29.9157 15.6391C30.1134 15.298 29.9583 14.8776 29.5698 14.7041L26.1393 13.1692C25.7508 12.9956 25.2719 13.1318 25.0742 13.4729C24.8765 13.8125 25.0316 14.2343 25.4201 14.4079Z" fill="#FF4B4B"/></svg>