<svg
    xmlns="http://www.w3.org/2000/svg"
    x="0px"
    y="4340px"
    width="23px"
    height="27px"
    viewBox="0 0 23 27"
    fill="none"
    >
    <path
        d="M11.7985 0C12.1515 0.0685378 12.5083 0.12946 12.8575 0.213229C15.267 0.772954 17.3274 3.05755 17.6497 5.49826C17.8645 7.10509 17.6267 8.62434 16.7135 9.98368C15.4972 11.7885 13.8167 12.8394 11.5952 12.9879C8.67536 13.1821 6.27351 11.4801 5.18385 9.16503C4.15942 6.99086 4.5738 4.09704 6.17759 2.29602C7.16365 1.1918 8.34923 0.430265 9.81873 0.133268C10.072 0.0837684 10.3252 0.0456919 10.5746 0C10.9813 0 11.388 0 11.7985 0Z"
        fill="#58CC02"
    />
    <path
        d="M11.34 26.9523C9.18754 26.9523 7.03508 26.9523 4.88263 26.9523C3.77762 26.9523 2.73785 26.739 1.82085 26.0879C0.781068 25.3493 0.167177 24.3402 0.059746 23.0875C-0.132095 20.8524 0.128809 18.663 0.976746 16.5726C1.47937 15.3275 2.23522 14.2537 3.47452 13.5988C4.24955 13.1876 5.07831 12.9896 5.94926 13.0048C6.22551 13.0086 6.51328 13.1419 6.76267 13.279C7.17321 13.4998 7.55305 13.7778 7.95208 14.0215C10.2235 15.4037 12.491 15.3998 14.7586 14.0101C15.0732 13.8159 15.3955 13.6293 15.6948 13.4084C16.2396 13.0048 16.8343 12.9477 17.4827 13.0429C19.2477 13.298 20.4946 14.2576 21.3387 15.7882C22.0908 17.1552 22.4284 18.6402 22.578 20.167C22.6548 20.9438 22.6931 21.7282 22.6816 22.5087C22.6509 24.9152 21.028 26.6591 18.6146 26.9066C18.323 26.937 18.0314 26.9523 17.7398 26.9523C15.6065 26.9523 13.4733 26.9523 11.34 26.9523Z"
        fill="#58CC02"
    />
</svg>
              