<svg xmlns="http://www.w3.org/2000/svg" x="0px" y="330px" width="24px" height="24px" viewBox="0 0 24 24" enable-background="new 0 0 24 24" xml:space="preserve">
	<path fill="none" stroke="#CFCFCF" d="M12,0.5c0.755,0,1.503,0.074,2.243,0.221c0.741,0.147,1.46,0.366,2.157,0.655   c0.698,0.289,1.36,0.643,1.988,1.063s1.209,0.896,1.743,1.43c0.534,0.534,1.011,1.115,1.43,1.743   c0.42,0.628,0.774,1.291,1.063,1.988s0.507,1.417,0.654,2.157C23.426,10.497,23.5,11.245,23.5,12s-0.074,1.503-0.221,2.244   c-0.147,0.741-0.365,1.459-0.654,2.157c-0.289,0.698-0.644,1.361-1.063,1.988c-0.419,0.628-0.896,1.209-1.43,1.743   s-1.115,1.011-1.743,1.431c-0.628,0.419-1.29,0.773-1.988,1.063c-0.697,0.289-1.416,0.507-2.157,0.654   C13.503,23.426,12.755,23.5,12,23.5s-1.503-0.074-2.244-0.221c-0.74-0.147-1.459-0.365-2.156-0.654   c-0.698-0.289-1.361-0.644-1.988-1.063c-0.628-0.42-1.209-0.896-1.743-1.431s-1.011-1.115-1.431-1.743   c-0.419-0.627-0.773-1.29-1.063-1.988c-0.289-0.697-0.507-1.416-0.654-2.157S0.5,12.755,0.5,12s0.073-1.503,0.221-2.244   s0.365-1.459,0.654-2.157s0.644-1.36,1.063-1.988c0.42-0.628,0.896-1.208,1.431-1.743c0.534-0.534,1.115-1.011,1.743-1.43   C6.238,2.019,6.901,1.664,7.6,1.375c0.697-0.289,1.416-0.507,2.156-0.655C10.497,0.574,11.245,0.5,12,0.5z"/>
	<text transform="matrix(1 0 0 1 9 19)" fill="#AFAFAF" font-family="'arial'" font-size="20">i</text>
	</svg>