<svg xmlns="http://www.w3.org/2000/svg" x="0px" y="4400px" width="33px" height="28px" viewBox="0 0 33 28" fill="none"><path d="M26.4081 5.68457H6.78609C4.96908 5.68457 3.49609 7.15755 3.49609 8.97457V24.1506C3.49609 25.9676 4.96908 27.4406 6.78609 27.4406H26.4081C28.2251 27.4406 29.6981 25.9676 29.6981 24.1506V8.97457C29.6981 7.15755 28.2251 5.68457 26.4081 5.68457Z" fill="#8E4D2C"/><path d="M0.5 9.091C0.5 9.065 0.5 9.039 0.5 9.013V9L2.537 5.072L4.258 1.74C4.45098 1.36645 4.743 1.05318 5.1021 0.834474C5.4612 0.615769 5.87354 0.500057 6.294 0.5L13.1 0.5L10.973 9.013C10.973 9.039 10.973 9.065 10.973 9.091C10.9525 10.4601 10.389 11.765 9.40658 12.7188C8.42413 13.6725 7.10311 14.197 5.734 14.177C4.36567 14.196 3.04579 13.6709 2.06437 12.7173C1.08295 11.7636 0.520277 10.4593 0.5 9.091H0.5Z" fill="#FF9600"/><path d="M10.9727 9.091C10.9727 9.064 10.9727 9.038 10.9727 9.013L13.0997 0.5H19.3217L21.4497 9.013C21.4497 9.038 21.4497 9.064 21.4497 9.091C21.4291 10.4598 20.8658 11.7645 19.8835 12.718C18.9013 13.6716 17.5805 14.196 16.2117 14.176C14.8426 14.1963 13.5216 13.672 12.5391 12.7184C11.5567 11.7648 10.9932 10.46 10.9727 9.091V9.091Z" fill="#FF9600"/><path d="M21.4552 9.091C21.4552 9.065 21.4552 9.039 21.4552 9.013H21.4512L19.3242 0.5H25.8242C26.2317 0.500153 26.6319 0.608914 26.9834 0.815086C27.3349 1.02126 27.6252 1.31739 27.8242 1.673L29.6122 4.867L31.9242 9V9.009C31.9242 9.035 31.9242 9.061 31.9242 9.087C31.9047 10.4552 31.343 11.7598 30.3624 12.7141C29.3818 13.6685 28.0625 14.1946 26.6942 14.177C25.3251 14.197 24.0041 13.6725 23.0216 12.7188C22.0392 11.765 21.4758 10.4601 21.4552 9.091Z" fill="#FF9600"/><path d="M7.56641 17.2324H12.8194C13.0846 17.2324 13.339 17.3378 13.5265 17.5253C13.714 17.7129 13.8194 17.9672 13.8194 18.2324V27.4404H6.56641V18.2324C6.56641 17.9672 6.67176 17.7129 6.8593 17.5253C7.04684 17.3378 7.30119 17.2324 7.56641 17.2324V17.2324Z" fill="#A56644"/><path d="M16.2383 23.2155V17.5355C16.2383 17.3446 16.3141 17.1615 16.4492 17.0264C16.5842 16.8914 16.7673 16.8155 16.9583 16.8155H26.7443C26.9352 16.8155 27.1184 16.8914 27.2534 17.0264C27.3884 17.1615 27.4643 17.3446 27.4643 17.5355V23.2155C27.4643 23.4065 27.3884 23.5896 27.2534 23.7247C27.1184 23.8597 26.9352 23.9355 26.7443 23.9355H16.9583C16.7673 23.9355 16.5842 23.8597 16.4492 23.7247C16.3141 23.5896 16.2383 23.4065 16.2383 23.2155V23.2155Z" fill="#A56644"/></svg>